<svg width="93" height="61" viewBox="0 0 93 61" fill="none" xmlns="http://www.w3.org/2000/svg">
<g clip-path="url(#clip0_158_6182)">
<path d="M33.667 28.3334V31.6667C33.667 32.5508 34.0182 33.3986 34.6433 34.0237C35.2684 34.6489 36.1163 35 37.0003 35H57.0003C57.8844 35 58.7322 34.6489 59.3573 34.0237C59.9825 33.3986 60.3337 32.5508 60.3337 31.6667V28.3334" stroke="white" stroke-width="3" stroke-linecap="round" stroke-linejoin="round"/>
<path d="M38.667 18.3334L47.0003 26.6667L55.3337 18.3334" stroke="white" stroke-width="3" stroke-linecap="round" stroke-linejoin="round"/>
<path d="M47 6.66663V26.6666" stroke="white" stroke-width="3" stroke-linecap="round" stroke-linejoin="round"/>
</g>
<path d="M1.162 58V47.57H4.578C5.63267 47.57 6.552 47.7847 7.336 48.214C8.12 48.6433 8.72667 49.25 9.156 50.034C9.58533 50.8087 9.8 51.7233 9.8 52.778C9.8 53.8233 9.58533 54.738 9.156 55.522C8.72667 56.306 8.12 56.9173 7.336 57.356C6.552 57.7853 5.63267 58 4.578 58H1.162ZM2.534 56.74H4.592C5.36667 56.74 6.034 56.5767 6.594 56.25C7.16333 55.9233 7.602 55.466 7.91 54.878C8.218 54.2807 8.372 53.5807 8.372 52.778C8.372 51.966 8.21333 51.266 7.896 50.678C7.588 50.09 7.14933 49.6373 6.58 49.32C6.02 48.9933 5.35733 48.83 4.592 48.83H2.534V56.74ZM14.969 58.168C14.241 58.168 13.583 58 12.995 57.664C12.407 57.3187 11.9403 56.8473 11.595 56.25C11.2496 55.6527 11.077 54.976 11.077 54.22C11.077 53.464 11.245 52.792 11.581 52.204C11.9263 51.616 12.393 51.1493 12.981 50.804C13.569 50.4587 14.2316 50.286 14.969 50.286C15.697 50.286 16.355 50.4587 16.943 50.804C17.531 51.14 17.993 51.602 18.329 52.19C18.6743 52.778 18.847 53.4547 18.847 54.22C18.847 54.9853 18.6696 55.6667 18.315 56.264C17.9603 56.852 17.489 57.3187 16.901 57.664C16.3223 58 15.6783 58.168 14.969 58.168ZM14.969 56.908C15.4356 56.908 15.8556 56.7913 16.229 56.558C16.6116 56.3247 16.9103 56.0027 17.125 55.592C17.349 55.1813 17.461 54.724 17.461 54.22C17.461 53.7067 17.349 53.254 17.125 52.862C16.9103 52.4607 16.6116 52.1433 16.229 51.91C15.8556 51.6673 15.4356 51.546 14.969 51.546C14.493 51.546 14.0636 51.6673 13.681 51.91C13.3076 52.1433 13.009 52.4607 12.785 52.862C12.561 53.254 12.449 53.7067 12.449 54.22C12.449 54.724 12.561 55.1813 12.785 55.592C13.009 56.0027 13.3076 56.3247 13.681 56.558C14.0636 56.7913 14.493 56.908 14.969 56.908ZM22.1444 58L19.5544 50.454H20.9964L23.0544 56.768L22.5504 56.754L24.5664 50.454H25.7984L27.8144 56.754L27.3104 56.768L29.3824 50.454H30.8104L28.2204 58H26.9744L24.9864 51.7H25.3784L23.3904 58H22.1444ZM31.9748 58V50.454H33.2488V51.924L33.0388 51.798C33.2255 51.322 33.5241 50.9533 33.9348 50.692C34.3548 50.4213 34.8448 50.286 35.4048 50.286C35.9461 50.286 36.4268 50.4073 36.8468 50.65C37.2761 50.8927 37.6121 51.2287 37.8548 51.658C38.1068 52.0873 38.2328 52.5727 38.2328 53.114V58H36.9168V53.534C36.9168 53.114 36.8421 52.7593 36.6928 52.47C36.5435 52.1807 36.3288 51.9567 36.0488 51.798C35.7781 51.63 35.4655 51.546 35.1108 51.546C34.7561 51.546 34.4388 51.63 34.1588 51.798C33.8881 51.9567 33.6735 52.1853 33.5148 52.484C33.3561 52.7733 33.2768 53.1233 33.2768 53.534V58H31.9748ZM40.0959 58V47.402H41.3979V58H40.0959ZM47.0022 58.168C46.2742 58.168 45.6162 58 45.0282 57.664C44.4402 57.3187 43.9735 56.8473 43.6282 56.25C43.2828 55.6527 43.1102 54.976 43.1102 54.22C43.1102 53.464 43.2782 52.792 43.6142 52.204C43.9595 51.616 44.4262 51.1493 45.0142 50.804C45.6022 50.4587 46.2648 50.286 47.0022 50.286C47.7302 50.286 48.3882 50.4587 48.9762 50.804C49.5642 51.14 50.0262 51.602 50.3622 52.19C50.7075 52.778 50.8802 53.4547 50.8802 54.22C50.8802 54.9853 50.7028 55.6667 50.3482 56.264C49.9935 56.852 49.5222 57.3187 48.9342 57.664C48.3555 58 47.7115 58.168 47.0022 58.168ZM47.0022 56.908C47.4688 56.908 47.8888 56.7913 48.2622 56.558C48.6448 56.3247 48.9435 56.0027 49.1582 55.592C49.3822 55.1813 49.4942 54.724 49.4942 54.22C49.4942 53.7067 49.3822 53.254 49.1582 52.862C48.9435 52.4607 48.6448 52.1433 48.2622 51.91C47.8888 51.6673 47.4688 51.546 47.0022 51.546C46.5262 51.546 46.0968 51.6673 45.7142 51.91C45.3408 52.1433 45.0422 52.4607 44.8182 52.862C44.5942 53.254 44.4822 53.7067 44.4822 54.22C44.4822 54.724 44.5942 55.1813 44.8182 55.592C45.0422 56.0027 45.3408 56.3247 45.7142 56.558C46.0968 56.7913 46.5262 56.908 47.0022 56.908ZM54.7903 58.168C54.2956 58.168 53.857 58.0793 53.4743 57.902C53.101 57.7153 52.807 57.4633 52.5923 57.146C52.3776 56.8193 52.2703 56.446 52.2703 56.026C52.2703 55.6247 52.3543 55.2653 52.5223 54.948C52.6996 54.6213 52.9703 54.346 53.3343 54.122C53.7076 53.898 54.1743 53.7393 54.7343 53.646L57.5343 53.184V54.276L55.0283 54.696C54.543 54.78 54.1883 54.934 53.9643 55.158C53.7496 55.382 53.6423 55.6573 53.6423 55.984C53.6423 56.292 53.7636 56.5487 54.0063 56.754C54.2583 56.9593 54.571 57.062 54.9443 57.062C55.4203 57.062 55.831 56.964 56.1763 56.768C56.531 56.5627 56.8063 56.2873 57.0023 55.942C57.2076 55.5967 57.3103 55.214 57.3103 54.794V52.876C57.3103 52.4653 57.1563 52.134 56.8483 51.882C56.5496 51.6207 56.153 51.49 55.6583 51.49C55.229 51.49 54.8463 51.602 54.5103 51.826C54.1836 52.0407 53.941 52.33 53.7823 52.694L52.6483 52.106C52.7883 51.7607 53.0123 51.4527 53.3203 51.182C53.6283 50.902 53.9876 50.6827 54.3983 50.524C54.809 50.3653 55.2383 50.286 55.6863 50.286C56.265 50.286 56.7736 50.398 57.2123 50.622C57.651 50.8367 57.9916 51.14 58.2343 51.532C58.4863 51.9147 58.6123 52.3627 58.6123 52.876V58H57.3383V56.572L57.5763 56.656C57.4176 56.9547 57.203 57.216 56.9323 57.44C56.6616 57.664 56.3443 57.8413 55.9803 57.972C55.6163 58.1027 55.2196 58.168 54.7903 58.168ZM64.061 58.168C63.3517 58.168 62.7124 57.9953 62.143 57.65C61.583 57.3047 61.1397 56.8333 60.813 56.236C60.4864 55.6387 60.323 54.9713 60.323 54.234C60.323 53.478 60.4864 52.806 60.813 52.218C61.1397 51.6207 61.583 51.1493 62.143 50.804C62.7124 50.4587 63.3517 50.286 64.061 50.286C64.6864 50.286 65.2417 50.4213 65.727 50.692C66.2124 50.9533 66.595 51.308 66.875 51.756L66.665 52.078V47.402H67.981V58H66.707V56.39L66.875 56.614C66.6137 57.1087 66.231 57.4913 65.727 57.762C65.2324 58.0327 64.677 58.168 64.061 58.168ZM64.173 56.908C64.649 56.908 65.0737 56.7913 65.447 56.558C65.8204 56.3247 66.1144 56.0073 66.329 55.606C66.553 55.1953 66.665 54.738 66.665 54.234C66.665 53.7207 66.553 53.2633 66.329 52.862C66.1144 52.4513 65.8204 52.1293 65.447 51.896C65.0737 51.6627 64.649 51.546 64.173 51.546C63.7064 51.546 63.2817 51.6673 62.899 51.91C62.5257 52.1433 62.2317 52.4607 62.017 52.862C61.8024 53.254 61.695 53.7113 61.695 54.234C61.695 54.738 61.8024 55.1953 62.017 55.606C62.2317 56.0073 62.5257 56.3247 62.899 56.558C63.2724 56.7913 63.697 56.908 64.173 56.908ZM77.5542 58.168C76.8169 58.168 76.1262 58.0373 75.4822 57.776C74.8382 57.5053 74.2735 57.1273 73.7882 56.642C73.3122 56.1567 72.9389 55.5873 72.6682 54.934C72.3975 54.2713 72.2622 53.5527 72.2622 52.778C72.2622 51.994 72.3975 51.2753 72.6682 50.622C72.9389 49.9687 73.3122 49.3993 73.7882 48.914C74.2735 48.4287 74.8335 48.0553 75.4682 47.794C76.1122 47.5327 76.8075 47.402 77.5542 47.402C78.3009 47.402 78.9915 47.5373 79.6262 47.808C80.2702 48.0693 80.8302 48.4427 81.3062 48.928C81.7915 49.404 82.1695 49.9687 82.4402 50.622C82.7202 51.2753 82.8602 51.994 82.8602 52.778C82.8602 53.5527 82.7202 54.2713 82.4402 54.934C82.1695 55.5873 81.7915 56.1567 81.3062 56.642C80.8302 57.1273 80.2702 57.5053 79.6262 57.776C78.9915 58.0373 78.3009 58.168 77.5542 58.168ZM77.5542 56.894C78.1329 56.894 78.6602 56.7913 79.1362 56.586C79.6122 56.3713 80.0229 56.0773 80.3682 55.704C80.7229 55.3213 80.9935 54.8827 81.1802 54.388C81.3762 53.884 81.4742 53.3473 81.4742 52.778C81.4742 52.2087 81.3762 51.6767 81.1802 51.182C80.9935 50.6873 80.7229 50.2533 80.3682 49.88C80.0229 49.4973 79.6122 49.2033 79.1362 48.998C78.6602 48.7833 78.1329 48.676 77.5542 48.676C76.9849 48.676 76.4622 48.7833 75.9862 48.998C75.5102 49.2033 75.0949 49.4973 74.7402 49.88C74.3949 50.2533 74.1242 50.6873 73.9282 51.182C73.7322 51.6767 73.6342 52.2087 73.6342 52.778C73.6342 53.3473 73.7322 53.884 73.9282 54.388C74.1242 54.8827 74.3949 55.3213 74.7402 55.704C75.0949 56.0773 75.5102 56.3713 75.9862 56.586C76.4622 56.7913 76.9849 56.894 77.5542 56.894ZM80.3682 59.26L76.8122 53.828H78.3242L81.8942 59.26H80.3682ZM84.8612 58V47.57H88.5432C89.2339 47.57 89.8406 47.7007 90.3632 47.962C90.8859 48.2233 91.2919 48.5967 91.5812 49.082C91.8799 49.5673 92.0292 50.1367 92.0292 50.79C92.0292 51.5273 91.8426 52.1527 91.4692 52.666C91.0959 53.1793 90.5919 53.548 89.9572 53.772L92.3792 58H90.7832L88.2352 53.478L89.1452 54.01H86.2332V58H84.8612ZM86.2332 52.75H88.5852C88.9959 52.75 89.3552 52.6707 89.6632 52.512C89.9712 52.3533 90.2092 52.1247 90.3772 51.826C90.5546 51.5273 90.6432 51.182 90.6432 50.79C90.6432 50.3887 90.5546 50.0433 90.3772 49.754C90.2092 49.4553 89.9712 49.2267 89.6632 49.068C89.3552 48.9093 88.9959 48.83 88.5852 48.83H86.2332V52.75Z" fill="white"/>
<defs>
<clipPath id="clip0_158_6182">
<rect width="40" height="40" fill="white" transform="translate(27)"/>
</clipPath>
</defs>
</svg>
