<svg width="579" height="456" viewBox="0 0 579 456" fill="none" xmlns="http://www.w3.org/2000/svg">
<g clip-path="url(#clip0_148_679)">
<path d="M105.567 53.783C104.479 53.9029 103.431 54.2596 102.496 54.8279C101.561 55.3962 100.762 56.1623 100.155 57.0722C99.5491 57.9822 99.1499 59.0139 98.9859 60.0946C98.8219 61.1753 98.8972 62.2788 99.2065 63.3274L77.5603 78.7752L90.4631 83.7341L109.041 68.3043C110.77 67.6687 112.206 66.4217 113.076 64.7995C113.946 63.1773 114.19 61.2927 113.762 59.5028C113.334 57.7128 112.263 56.1419 110.753 55.0878C109.242 54.0336 107.397 53.5693 105.567 53.783Z" fill="#FFB8B8"/>
<path d="M103.554 77.0516L76.7037 104.032C73.024 107.706 68.1718 109.977 62.9902 110.449L29.8125 113.472C28.5962 113.588 27.369 113.459 26.2034 113.093C25.0377 112.727 23.9573 112.132 23.0261 111.342C21.7376 110.265 20.7796 108.847 20.2619 107.251C19.7442 105.654 19.6879 103.945 20.0995 102.318C20.5111 100.691 21.3738 99.213 22.5886 98.0538C23.8034 96.8946 25.3209 96.1012 26.9669 95.7646L60.8617 88.557L91.7203 65.8396C92.1493 65.5985 92.634 65.4736 93.1262 65.4773C93.6185 65.4809 94.1013 65.613 94.5266 65.8605L102.919 72.7261C103.423 73.0024 103.829 73.4297 104.078 73.948C104.328 74.4662 104.409 75.0494 104.309 75.6158C104.211 76.1606 103.947 76.662 103.554 77.0516Z" fill="#2F2E41"/>
<path d="M425.468 91.5516C425.667 89.7098 425.295 87.8511 424.4 86.2283C423.505 84.6055 422.132 83.2971 420.466 82.4812L253.368 0.917364C252.305 0.398172 251.151 0.0930845 249.97 0.0195291C248.789 -0.0540263 247.606 0.105385 246.487 0.488664C245.368 0.871943 244.335 1.47159 243.449 2.25335C242.562 3.03511 241.837 3.98368 241.318 5.04491L241.315 5.05118L178.642 133.113C177.596 135.258 177.444 137.73 178.22 139.986C178.996 142.243 180.636 144.1 182.781 145.151L349.879 226.715C352.027 227.759 354.502 227.911 356.762 227.136C359.021 226.361 360.881 224.723 361.933 222.581L424.605 94.5189C425.063 93.5874 425.355 92.5832 425.468 91.5516Z" fill="#F2F2F2"/>
<path d="M327.575 375.786H110.757C108.027 375.783 105.41 374.698 103.48 372.771C101.55 370.843 100.464 368.229 100.461 365.503V71.5465C100.464 68.8203 101.55 66.2068 103.48 64.2791C105.41 62.3514 108.027 61.2671 110.757 61.264H327.575C330.305 61.2671 332.922 62.3514 334.852 64.2791C336.783 66.2068 337.868 68.8203 337.871 71.5465V365.503C337.868 368.229 336.783 370.843 334.852 372.771C332.922 374.698 330.305 375.783 327.575 375.786Z" fill="white"/>
<path d="M168.265 148.919C176.077 148.919 182.41 142.594 182.41 134.792C182.41 126.99 176.077 120.665 168.265 120.665C160.452 120.665 154.119 126.99 154.119 134.792C154.119 142.594 160.452 148.919 168.265 148.919Z" fill="#E6E6E6"/>
<path d="M146.705 173.403C148.704 174.538 150.796 175.501 152.958 176.281L153.34 176.414C157.695 177.941 162.279 178.718 166.895 178.713C167.824 178.713 168.718 178.68 169.554 178.617C171.588 178.493 173.61 178.214 175.602 177.784C176.695 177.546 177.785 177.261 178.839 176.937C179.094 176.862 179.33 176.789 179.589 176.708C183.886 175.316 187.923 173.227 191.539 170.523C191.249 169.975 190.931 169.441 190.587 168.925C188.728 166.088 186.19 163.759 183.202 162.148C180.214 160.537 176.871 159.696 173.476 159.701H166.031C162.104 159.701 158.26 160.829 154.957 162.95C151.654 165.071 149.03 168.095 147.4 171.663C147.139 172.231 146.907 172.812 146.705 173.403Z" fill="#E6E6E6"/>
<path d="M173.065 177.433C172.59 177.468 172.132 177.628 171.74 177.897C173.736 177.773 175.719 177.498 177.674 177.074L173.065 177.433Z" fill="#2F2E41"/>
<path d="M169.122 96.4554C160.012 96.4564 151.156 99.4608 143.93 105.002C136.704 110.544 131.512 118.313 129.16 127.103C126.808 135.893 127.427 145.213 130.921 153.616C134.415 162.019 140.589 169.035 148.484 173.575C150.58 174.787 152.78 175.81 155.058 176.631L155.445 176.765C159.84 178.306 164.465 179.09 169.122 179.085C170.023 179.085 170.924 179.055 171.81 178.988C173.861 178.862 175.899 178.581 177.907 178.148C179.032 177.902 180.133 177.613 181.176 177.293C181.429 177.218 181.667 177.144 181.927 177.062C191.291 174.016 199.26 167.735 204.401 159.346C209.542 150.958 211.519 141.014 209.976 131.3C208.433 121.587 203.471 112.741 195.983 106.354C188.494 99.9674 178.97 96.4574 169.122 96.4554ZM193.125 168.72C189.556 171.47 185.539 173.586 181.25 174.973C181.019 175.047 180.781 175.122 180.543 175.196C179.553 175.501 178.51 175.768 177.438 175.999C175.538 176.413 173.609 176.682 171.668 176.802C170.827 176.861 169.971 176.891 169.122 176.891C164.714 176.894 160.336 176.152 156.175 174.698L155.811 174.571C153.545 173.758 151.361 172.732 149.288 171.508C142.071 167.264 136.407 160.821 133.128 153.124C129.849 145.427 129.129 136.883 131.073 128.747C133.017 120.61 137.523 113.312 143.928 107.923C150.333 102.534 158.301 99.3385 166.659 98.8068C175.018 98.2752 183.327 100.435 190.365 104.969C197.403 109.503 202.8 116.172 205.761 123.996C208.723 131.82 209.094 140.386 206.82 148.437C204.545 156.487 199.745 163.596 193.125 168.72Z" fill="#CCCCCC"/>
<path d="M327.575 375.786H110.757C108.027 375.783 105.41 374.698 103.48 372.771C101.55 370.843 100.464 368.229 100.461 365.503V71.5465C100.464 68.8203 101.55 66.2068 103.48 64.2791C105.41 62.3514 108.027 61.2671 110.757 61.264H327.575C330.305 61.2671 332.922 62.3514 334.852 64.2791C336.783 66.2068 337.868 68.8203 337.871 71.5465V365.503C337.868 368.229 336.783 370.843 334.852 372.771C332.922 374.698 330.305 375.783 327.575 375.786ZM110.757 62.4737C108.348 62.4765 106.039 63.4332 104.336 65.1341C102.633 66.835 101.675 69.1411 101.672 71.5465V365.503C101.675 367.909 102.633 370.215 104.336 371.916C106.039 373.617 108.348 374.573 110.757 374.576H327.575C329.984 374.573 332.293 373.617 333.996 371.916C335.699 370.215 336.657 367.909 336.66 365.503V71.5465C336.657 69.1411 335.699 66.835 333.996 65.1341C332.293 63.4332 329.984 62.4765 327.575 62.4737L110.757 62.4737Z" fill="#CCCCCC"/>
<path d="M285.602 137.611H224.25C222.962 137.611 221.728 137.1 220.818 136.191C219.907 135.282 219.396 134.049 219.396 132.763C219.396 131.478 219.907 130.245 220.818 129.336C221.728 128.427 222.962 127.916 224.25 127.916H285.602C286.889 127.916 288.124 128.427 289.034 129.336C289.944 130.245 290.455 131.478 290.455 132.763C290.455 134.049 289.944 135.282 289.034 136.191C288.124 137.1 286.889 137.611 285.602 137.611Z" fill="#E6E6E6"/>
<path d="M305.623 153.97H224.25C222.962 153.97 221.728 153.46 220.818 152.551C219.907 151.641 219.396 150.409 219.396 149.123C219.396 147.837 219.907 146.604 220.818 145.695C221.728 144.786 222.962 144.276 224.25 144.276H305.623C306.91 144.276 308.145 144.786 309.055 145.695C309.965 146.604 310.477 147.837 310.477 149.123C310.477 150.409 309.965 151.641 309.055 152.551C308.145 153.46 306.91 153.97 305.623 153.97Z" fill="#E6E6E6"/>
<path d="M285.513 216.717H132.709C131.422 216.717 130.187 216.206 129.277 215.297C128.367 214.388 127.855 213.155 127.855 211.869C127.855 210.584 128.367 209.351 129.277 208.442C130.187 207.533 131.422 207.022 132.709 207.022H285.513C286.8 207.022 288.034 207.533 288.945 208.442C289.855 209.351 290.366 210.584 290.366 211.869C290.366 213.155 289.855 214.388 288.945 215.297C288.034 216.206 286.8 216.717 285.513 216.717Z" fill="#E6E6E6"/>
<path d="M305.534 233.076H132.709C131.422 233.076 130.187 232.566 129.277 231.657C128.367 230.748 127.855 229.515 127.855 228.229C127.855 226.944 128.367 225.711 129.277 224.802C130.187 223.893 131.422 223.382 132.709 223.382H305.534C306.821 223.382 308.056 223.893 308.966 224.802C309.876 225.711 310.388 226.944 310.388 228.229C310.388 229.515 309.876 230.748 308.966 231.657C308.056 232.566 306.821 233.076 305.534 233.076Z" fill="#E6E6E6"/>
<path d="M285.513 270.678H132.709C131.422 270.678 130.187 270.167 129.277 269.258C128.367 268.349 127.855 267.116 127.855 265.83C127.855 264.545 128.367 263.312 129.277 262.403C130.187 261.494 131.422 260.983 132.709 260.983H285.513C286.8 260.983 288.034 261.494 288.945 262.403C289.855 263.312 290.366 264.545 290.366 265.83C290.366 267.116 289.855 268.349 288.945 269.258C288.034 270.167 286.8 270.678 285.513 270.678Z" fill="#E6E6E6"/>
<path d="M305.534 287.037H132.709C131.422 287.037 130.187 286.527 129.277 285.617C128.367 284.708 127.855 283.475 127.855 282.19C127.855 280.904 128.367 279.671 129.277 278.762C130.187 277.853 131.422 277.343 132.709 277.343H305.534C306.821 277.343 308.056 277.853 308.966 278.762C309.876 279.671 310.388 280.904 310.388 282.19C310.388 283.475 309.876 284.708 308.966 285.617C308.056 286.527 306.821 287.037 305.534 287.037Z" fill="#E6E6E6"/>
<path d="M285.513 324.638H132.709C131.422 324.638 130.187 324.128 129.277 323.218C128.367 322.309 127.855 321.077 127.855 319.791C127.855 318.505 128.367 317.272 129.277 316.363C130.187 315.454 131.422 314.944 132.709 314.944H285.513C286.8 314.944 288.034 315.454 288.945 316.363C289.855 317.272 290.366 318.505 290.366 319.791C290.366 321.077 289.855 322.309 288.945 323.218C288.034 324.128 286.8 324.638 285.513 324.638Z" fill="#E6E6E6"/>
<path d="M305.534 340.998H132.709C131.422 340.998 130.187 340.487 129.277 339.578C128.367 338.669 127.855 337.436 127.855 336.151C127.855 334.865 128.367 333.632 129.277 332.723C130.187 331.814 131.422 331.303 132.709 331.303H305.534C306.82 331.305 308.053 331.816 308.962 332.725C309.871 333.634 310.382 334.866 310.382 336.151C310.382 337.435 309.871 338.667 308.962 339.576C308.053 340.485 306.82 340.996 305.534 340.998Z" fill="#E6E6E6"/>
<path d="M418.023 175.571C418.222 173.729 417.85 171.871 416.955 170.248C416.06 168.625 414.687 167.317 413.021 166.501L245.923 84.937C244.86 84.4178 243.706 84.1127 242.525 84.0392C241.344 83.9656 240.161 84.125 239.042 84.5083C237.923 84.8916 236.89 85.4912 236.003 86.273C235.117 87.0548 234.392 88.0033 233.873 89.0646L233.869 89.0708L171.197 217.133C170.151 219.278 169.999 221.75 170.775 224.006C171.551 226.263 173.191 228.12 175.336 229.171L342.434 310.734C344.582 311.779 347.057 311.931 349.317 311.156C351.576 310.381 353.436 308.743 354.488 306.601L417.16 178.539C417.618 177.607 417.91 176.603 418.023 175.571Z" fill="white"/>
<path d="M418.023 175.571C418.222 173.729 417.85 171.871 416.955 170.248C416.06 168.625 414.687 167.317 413.021 166.501L245.923 84.937C244.86 84.4178 243.706 84.1127 242.525 84.0392C241.344 83.9656 240.161 84.125 239.042 84.5083C237.923 84.8916 236.89 85.4912 236.003 86.273C235.117 87.0548 234.392 88.0033 233.873 89.0646L233.869 89.0708L171.197 217.133C170.151 219.278 169.999 221.75 170.775 224.006C171.551 226.263 173.191 228.12 175.336 229.171L342.434 310.734C344.582 311.779 347.057 311.931 349.317 311.156C351.576 310.381 353.436 308.743 354.488 306.601L417.16 178.539C417.618 177.607 417.91 176.603 418.023 175.571ZM353.535 306.136C352.607 308.026 350.966 309.472 348.973 310.155C346.979 310.839 344.795 310.705 342.9 309.783L175.802 228.219C173.909 227.293 172.461 225.654 171.777 223.663C171.092 221.671 171.226 219.49 172.149 217.598L234.822 89.5358C235.75 87.6454 237.391 86.1998 239.385 85.516C241.378 84.8322 243.562 84.9661 245.457 85.8883L412.556 167.452C414.448 168.379 415.896 170.018 416.581 172.009C417.265 174 417.131 176.181 416.208 178.074L353.535 306.136Z" fill="#3F3D56"/>
<path d="M399.797 181.394L356.035 270.816C355.743 271.413 355.225 271.87 354.596 272.086C353.967 272.302 353.278 272.259 352.68 271.968L200.682 197.774C200.573 197.722 200.469 197.661 200.371 197.591C199.872 197.253 199.513 196.746 199.358 196.164C199.204 195.582 199.265 194.964 199.529 194.423L243.292 105.001C243.436 104.705 243.638 104.441 243.884 104.223C244.131 104.005 244.419 103.838 244.73 103.731C245.041 103.624 245.371 103.58 245.7 103.6C246.029 103.62 246.35 103.705 246.646 103.849L398.644 178.042C399.242 178.334 399.7 178.851 399.916 179.479C400.132 180.107 400.09 180.796 399.798 181.393L399.797 181.394Z" fill="#E6E6E6"/>
<path d="M266.353 176.853C278.511 176.853 288.366 167.01 288.366 154.869C288.366 142.728 278.511 132.885 266.353 132.885C254.196 132.885 244.341 142.728 244.341 154.869C244.341 167.01 254.196 176.853 266.353 176.853Z" fill="#E4252C"/>
<path d="M298.584 246.006L201.565 198.65C201.443 198.592 201.326 198.523 201.217 198.444L285.949 141.465C286.471 141.107 287.078 140.894 287.71 140.848C288.341 140.802 288.973 140.923 289.542 141.201C290.111 141.479 290.595 141.902 290.947 142.428C291.298 142.954 291.503 143.564 291.541 144.195L296.267 212.494L296.495 215.763L298.584 246.006Z" fill="#3F3D56"/>
<path opacity="0.2" d="M298.584 246.007L265.46 229.838L293.265 214.186L295.267 213.059L296.267 212.495L296.495 215.763L298.584 246.007Z" fill="black"/>
<path d="M352.604 272.374L268.69 231.415L296.495 215.763L298.497 214.635L334.73 194.237C337.105 192.901 340.509 194.407 341.281 196.964C341.332 197.138 341.371 197.314 341.4 197.493L352.604 272.374Z" fill="#3F3D56"/>
<path d="M93.6917 280.179L102.819 280.179L107.161 245.018L93.6895 245.019L93.6917 280.179Z" fill="#FFB8B8"/>
<path d="M91.363 277.203L109.338 277.203C110.843 277.203 112.333 277.498 113.723 278.073C115.113 278.648 116.375 279.491 117.439 280.553C118.503 281.616 119.347 282.877 119.922 284.265C120.498 285.653 120.794 287.14 120.794 288.643V289.015L91.3636 289.016L91.363 277.203Z" fill="#2F2E41"/>
<path d="M22.7454 274.375L32.2021 276.222L43.8372 240.674L29.8807 237.947L22.7454 274.375Z" fill="#FFB8B8"/>
<path d="M20.9375 270.821L39.5609 274.459L39.5616 274.459C41.1202 274.763 42.6034 275.371 43.9267 276.248C45.2499 277.125 46.3872 278.254 47.2737 279.57C48.1602 280.886 48.7784 282.364 49.0931 283.918C49.4078 285.473 49.4128 287.074 49.1079 288.631L49.0324 289.016L18.5405 283.059L20.9375 270.821Z" fill="#2F2E41"/>
<path d="M106.971 158.893C106.662 157.844 106.126 156.876 105.402 156.056C104.678 155.237 103.782 154.586 102.779 154.149C101.776 153.713 100.689 153.501 99.5945 153.53C98.5004 153.558 97.4258 153.825 96.4464 154.313L77.4212 135.74L74.7961 149.297L93.2653 164.855C94.1952 166.444 95.6764 167.637 97.4281 168.208C99.1799 168.779 101.081 168.689 102.77 167.954C104.459 167.219 105.82 165.89 106.594 164.22C107.368 162.55 107.502 160.655 106.971 158.893Z" fill="#FFB8B8"/>
<path d="M36.3847 63.2949C46.4837 63.2949 54.6705 55.1187 54.6705 45.0329C54.6705 34.9471 46.4837 26.7709 36.3847 26.7709C26.2857 26.7709 18.0989 34.9471 18.0989 45.0329C18.0989 55.1187 26.2857 63.2949 36.3847 63.2949Z" fill="#FFB8B8"/>
<path d="M32.5449 63.5745C33.5164 63.999 35.506 56.2675 34.6148 54.7211C33.2894 52.4214 33.3677 52.4379 32.4879 50.9164C31.608 49.395 31.4111 47.3124 32.5505 45.9737C33.6899 44.635 36.3266 44.8126 36.8466 46.4911C36.5121 43.3029 39.6697 40.7401 42.7975 40.02C45.9252 39.2998 49.2244 39.7469 52.3694 39.106C56.0192 38.3623 59.8168 35.3068 58.3605 31.2984C58.1106 30.631 57.7365 30.0169 57.2579 29.4885C55.5753 27.5993 53.2218 26.7925 50.9206 26.0125C46.1334 24.3898 41.2152 22.7467 36.1629 22.9258C32.0001 23.1432 27.9911 24.5678 24.6263 27.0252C21.2616 29.4827 18.6872 32.8665 17.2181 36.7624C16.8699 37.7371 16.6001 38.7379 16.4114 39.7554C14.6773 49.0677 20.092 58.2531 28.8865 61.7992L32.5449 63.5745Z" fill="#2F2E41"/>
<path d="M28.0553 163.895C27.589 163.614 27.2152 163.202 26.98 162.711C26.7449 162.22 26.6586 161.671 26.7317 161.132L18.4804 120.311L10.1163 88.9819C9.19809 85.549 9.47559 81.9064 10.903 78.6516C12.3303 75.3969 14.823 72.7233 17.972 71.0694L23.5014 65.8444L35.5642 71.0346L41.2962 76.8551C45.4074 78.8543 49.0543 81.6904 52.0024 85.1812C54.9506 88.672 57.1348 92.7403 58.4147 97.1245L67.6081 128.543L88.8395 160.088C89.194 160.614 89.3597 161.244 89.3098 161.876C89.2599 162.508 88.9971 163.104 88.5645 163.568C85.6108 166.741 28.0553 163.895 28.0553 163.895Z" fill="#2F2E41"/>
<path d="M83.6799 160.995L52.3729 139.329C48.1058 136.355 45.0167 131.983 43.6422 126.971L34.8421 94.8808C34.5145 93.7052 34.4261 92.476 34.5823 91.2658C34.7385 90.0555 35.1359 88.8888 35.7512 87.8346C36.5869 86.3789 37.8168 85.1882 39.2996 84.3991C40.7824 83.6101 42.458 83.2548 44.1339 83.3741C45.8098 83.4934 47.418 84.0824 48.7738 85.0735C50.1296 86.0645 51.178 87.4175 51.7985 88.9768L64.8493 121.038L92.6567 147.394C92.9696 147.773 93.1778 148.228 93.2605 148.713C93.3433 149.197 93.2977 149.695 93.1284 150.157L87.8325 159.612C87.6487 160.157 87.2986 160.631 86.8315 160.967C86.3643 161.303 85.8036 161.485 85.2278 161.486C84.6736 161.485 84.133 161.314 83.6799 160.995Z" fill="#2F2E41"/>
<path d="M18.6398 268.934C18.3838 268.567 18.2199 268.145 18.1619 267.702C18.104 267.259 18.1536 266.808 18.3066 266.389L32.7899 213.806L33.8605 162.283L82.6155 158.943L82.8522 158.927L97.5369 185.508C102.134 193.818 104.949 202.994 105.801 212.45L110.64 265.412C110.714 266.132 110.501 266.852 110.048 267.417C109.596 267.982 108.94 268.347 108.22 268.434L93.5195 269.83C92.8112 269.916 92.0973 269.723 91.53 269.291C90.9627 268.858 90.5869 268.222 90.4828 267.517L84.5133 213.698L63.0346 177.454L55.8247 215.611L40.8879 268.305C40.6926 268.831 40.3417 269.285 39.8818 269.607C39.422 269.929 38.8749 270.104 38.3132 270.108L20.8916 270.116C20.4481 270.118 20.0108 270.011 19.6181 269.805C19.2255 269.599 18.8896 269.3 18.6398 268.934Z" fill="#2F2E41"/>
<path d="M391.956 441.873H24.5687C18.0549 441.866 11.8101 439.278 7.20413 434.678C2.5982 430.078 0.00735794 423.841 0 417.336V215.838C0.00735794 209.332 2.5982 203.096 7.20413 198.496C11.8101 193.896 18.0549 191.308 24.5687 191.301H69.6133C75.7252 191.296 81.6185 193.571 86.1377 197.68L134.986 232.516C138.171 235.422 142.33 237.032 146.644 237.029H394.237C397.494 237.029 400.718 237.675 403.722 238.931C406.726 240.186 409.451 242.026 411.736 244.342C414.022 246.659 415.824 249.406 417.038 252.425C418.251 255.443 418.851 258.672 418.803 261.924L416.522 417.695C416.402 424.131 413.763 430.265 409.172 434.783C404.581 439.302 398.402 441.846 391.956 441.873Z" fill="white"/>
<path d="M388.692 429.976H26.7423C23.6 429.973 20.5874 428.725 18.3655 426.505C16.1435 424.286 14.8937 421.278 14.8901 418.14V213.346C14.8937 210.208 16.1435 207.2 18.3655 204.981C20.5874 202.762 23.6 201.513 26.7423 201.51C29.5216 201.513 32.1862 202.617 34.1514 204.58C36.1167 206.542 37.2222 209.203 37.2253 211.979V404.012C37.2287 406.953 38.4 409.773 40.4824 411.853C42.5647 413.932 45.388 415.102 48.3329 415.106H387.47C389.155 415.087 390.797 415.632 392.135 416.655C393.473 417.677 394.43 419.118 394.852 420.747C395.325 422.292 395.266 423.95 394.685 425.457C394.103 426.965 393.033 428.234 391.645 429.063C390.765 429.636 389.742 429.952 388.692 429.976Z" fill="#F2F2F2"/>
<path d="M211.011 331.627L210.058 330.675C209.861 330.49 209.745 330.235 209.736 329.965C209.727 329.695 209.826 329.432 210.011 329.235C210.026 329.219 210.042 329.203 210.058 329.188L218.419 320.83C218.51 320.733 218.62 320.654 218.742 320.599C218.864 320.544 218.996 320.513 219.13 320.509C219.264 320.504 219.397 320.526 219.523 320.573C219.648 320.62 219.763 320.692 219.861 320.783C219.877 320.798 219.893 320.814 219.908 320.83L228.269 329.18C228.367 329.275 228.445 329.387 228.499 329.512C228.553 329.636 228.582 329.77 228.585 329.906C228.587 330.041 228.563 330.176 228.513 330.303C228.463 330.429 228.389 330.544 228.294 330.642L228.269 330.667L227.316 331.619C227.221 331.717 227.109 331.795 226.984 331.849C226.859 331.903 226.725 331.932 226.589 331.935C226.454 331.937 226.319 331.913 226.192 331.863C226.066 331.813 225.95 331.739 225.852 331.645L225.827 331.619L220.883 326.414V338.765C220.884 338.899 220.859 339.033 220.808 339.158C220.757 339.283 220.682 339.396 220.588 339.492C220.493 339.588 220.38 339.665 220.256 339.717C220.132 339.77 219.998 339.797 219.863 339.798L219.856 339.798H218.478C218.204 339.798 217.941 339.689 217.747 339.495C217.553 339.302 217.444 339.039 217.444 338.765V326.429L212.5 331.634C212.308 331.83 212.047 331.942 211.772 331.946C211.498 331.949 211.233 331.844 211.037 331.652L211.011 331.627Z" fill="#E4252C"/>
<path d="M219.149 313.239C222.504 313.239 225.785 314.233 228.575 316.095C231.365 317.957 233.54 320.603 234.824 323.7C236.109 326.796 236.445 330.203 235.79 333.49C235.135 336.777 233.519 339.797 231.146 342.166C228.773 344.536 225.75 346.15 222.459 346.804C219.167 347.458 215.756 347.122 212.655 345.84C209.555 344.557 206.905 342.385 205.041 339.599C203.176 336.812 202.181 333.536 202.181 330.184C202.185 325.691 203.974 321.384 207.155 318.207C210.336 315.03 214.65 313.243 219.149 313.239ZM219.149 311.009C215.351 311.009 211.639 312.133 208.481 314.24C205.324 316.347 202.863 319.342 201.409 322.846C199.956 326.35 199.576 330.206 200.317 333.925C201.058 337.645 202.886 341.062 205.572 343.744C208.257 346.425 211.678 348.252 215.403 348.992C219.127 349.732 222.988 349.352 226.496 347.9C230.005 346.449 233.004 343.991 235.113 340.838C237.223 337.684 238.349 333.977 238.349 330.184C238.349 325.099 236.326 320.221 232.726 316.625C229.125 313.029 224.241 311.009 219.149 311.009Z" fill="#3F3D56"/>
<path d="M391.956 441.873H24.5687C18.0549 441.866 11.8101 439.278 7.20413 434.678C2.5982 430.078 0.00735794 423.841 0 417.336V215.838C0.00735794 209.332 2.5982 203.096 7.20413 198.496C11.8101 193.896 18.0549 191.308 24.5687 191.301H69.6133C75.7252 191.296 81.6185 193.571 86.1377 197.68L134.986 232.516C138.171 235.422 142.33 237.032 146.644 237.029H394.237C397.494 237.029 400.718 237.675 403.722 238.931C406.726 240.186 409.451 242.026 411.736 244.342C414.022 246.659 415.824 249.406 417.038 252.425C418.251 255.443 418.851 258.672 418.803 261.924L416.522 417.695C416.402 424.131 413.763 430.265 409.172 434.783C404.581 439.302 398.402 441.846 391.956 441.873ZM24.5687 192.788C18.4497 192.795 12.5834 195.226 8.25658 199.547C3.92981 203.868 1.49597 209.727 1.48901 215.838V417.336C1.49597 423.447 3.92981 429.306 8.25658 433.627C12.5834 437.948 18.4497 440.379 24.5687 440.386H391.956C398.011 440.361 403.816 437.971 408.129 433.726C412.442 429.481 414.92 423.719 415.033 417.673L417.315 261.902C417.359 258.847 416.795 255.814 415.656 252.978C414.516 250.143 412.823 247.562 410.676 245.386C408.529 243.21 405.969 241.482 403.147 240.303C400.325 239.123 397.296 238.516 394.237 238.516H146.644C141.974 238.52 137.47 236.782 134.015 233.645L85.1674 198.809C80.9184 194.931 75.3693 192.783 69.6133 192.788H24.5687Z" fill="#3F3D56"/>
<path d="M423.092 445.796H413.964L411.111 410.635L423.093 410.636L423.092 445.796Z" fill="#FFB8B8"/>
<path d="M425.419 454.632L395.989 454.631V454.259C395.989 452.757 396.285 451.269 396.86 449.881C397.436 448.493 398.28 447.232 399.344 446.17C400.407 445.107 401.67 444.265 403.06 443.69C404.45 443.115 405.94 442.819 407.444 442.819L425.42 442.82L425.419 454.632Z" fill="#2F2E41"/>
<path d="M525.089 445.796H515.961L511.619 410.635L525.09 410.636L525.089 445.796Z" fill="#FFB8B8"/>
<path d="M527.417 454.632L497.986 454.631V454.259C497.986 452.757 498.282 451.269 498.858 449.881C499.433 448.493 500.277 447.232 501.341 446.17C502.405 445.107 503.668 444.265 505.057 443.69C506.447 443.115 507.937 442.819 509.441 442.819L527.417 442.82L527.417 454.632Z" fill="#2F2E41"/>
<path d="M495.077 337.102C496.337 335.627 497.047 333.762 497.086 331.823C497.126 329.885 496.493 327.993 495.294 326.468C495.051 326.176 494.784 325.905 494.497 325.656L501.371 300.308L489.913 304.104L485.141 327.594C484.349 329.042 483.999 330.69 484.134 332.335C484.268 333.98 484.882 335.549 485.899 336.85C486.431 337.552 487.114 338.126 487.898 338.529C488.682 338.932 489.546 339.154 490.427 339.178C491.309 339.202 492.184 339.028 492.989 338.668C493.794 338.309 494.507 337.774 495.077 337.102Z" fill="#FFB8B8"/>
<path d="M494.636 321.508C494.492 321.508 494.349 321.498 494.207 321.476L488.236 320.577C487.772 320.497 487.33 320.317 486.943 320.049C486.555 319.781 486.231 319.431 485.993 319.025C485.476 318.16 485.29 317.137 485.47 316.146L492.919 274.596L487.867 247.902C486.893 242.764 489.405 237.576 493.712 235.833C494.99 235.311 496.381 235.129 497.75 235.304C499.119 235.479 500.42 236.005 501.524 236.832C502.716 237.733 503.704 238.875 504.425 240.183C505.146 241.49 505.584 242.935 505.709 244.422L509.285 278.459L509.242 278.607L497.734 318.943C497.569 319.649 497.176 320.282 496.617 320.746C496.057 321.209 495.362 321.477 494.636 321.508Z" fill="#E4252C"/>
<path d="M492.873 221.122C502.972 221.122 511.159 212.946 511.159 202.86C511.159 192.774 502.972 184.598 492.873 184.598C482.774 184.598 474.587 192.774 474.587 202.86C474.587 212.946 482.774 221.122 492.873 221.122Z" fill="#FFB8B8"/>
<path d="M483.511 287.75C483.055 287.75 482.604 287.666 482.179 287.502L453.276 276.4C452.494 276.102 451.836 275.548 451.408 274.829C450.981 274.11 450.81 273.267 450.923 272.439L452.084 263.745C451.395 260.662 451.458 257.46 452.268 254.408C453.078 251.355 454.61 248.542 456.737 246.204L457.44 245.431L465.991 229.858C466.57 228.803 467.353 227.873 468.294 227.122C469.235 226.37 470.316 225.812 471.474 225.48C472.632 225.148 473.844 225.048 475.041 225.186C476.238 225.324 477.396 225.697 478.447 226.284L493.548 234.711C495.535 235.819 497.036 237.629 497.754 239.786C499.786 245.892 499.636 252.513 497.328 258.52L486.989 285.367C486.716 286.067 486.238 286.668 485.617 287.093C484.997 287.518 484.263 287.747 483.511 287.75Z" fill="#E4252C"/>
<path d="M407.766 437.163L407.727 437.155C407.234 437.06 406.765 436.867 406.349 436.587C405.933 436.307 405.578 435.945 405.305 435.524C405.032 435.103 404.848 434.632 404.762 434.138C404.676 433.644 404.692 433.138 404.807 432.65L426.955 335.961C430.581 320.633 435.59 305.665 441.921 291.24L451.344 269.784L486.504 285.815L491.524 294.984C495.438 305.197 497.451 316.038 497.462 326.973L533.189 431.538C533.363 432.049 533.424 432.591 533.368 433.127C533.311 433.664 533.139 434.182 532.862 434.645C532.585 435.108 532.21 435.505 531.764 435.809C531.318 436.113 530.811 436.317 530.278 436.405L510.721 436.185C510.536 436.218 510.349 436.234 510.161 436.232C509.42 436.233 508.696 436.011 508.082 435.595C507.469 435.18 506.994 434.589 506.721 433.901L465.882 328.181C465.823 328.04 465.723 327.921 465.595 327.839C465.468 327.756 465.317 327.715 465.165 327.72C465.017 327.722 464.872 327.771 464.752 327.858C464.632 327.945 464.541 328.068 464.493 328.208L425.743 434.455C425.446 435.281 424.865 435.975 424.103 436.412C423.34 436.849 422.447 437.002 421.583 436.842L407.766 437.163Z" fill="#2F2E41"/>
<path d="M434.504 318.26C435.535 317.893 436.473 317.306 437.253 316.538C438.032 315.77 438.633 314.841 439.014 313.817C439.395 312.792 439.546 311.696 439.457 310.607C439.368 309.517 439.041 308.461 438.498 307.511L456.011 287.51L442.313 285.644L427.782 304.924C426.246 305.939 425.135 307.482 424.661 309.261C424.188 311.039 424.384 312.93 425.212 314.573C426.041 316.217 427.444 317.5 429.157 318.18C430.869 318.859 432.772 318.888 434.504 318.26Z" fill="#FFB8B8"/>
<path d="M442.76 304.169C442.15 304.169 441.55 304.019 441.012 303.734L434.849 300.451C434.397 300.21 433.999 299.878 433.681 299.477C433.363 299.075 433.132 298.613 433.001 298.118C432.87 297.623 432.844 297.106 432.922 296.6C433.001 296.095 433.183 295.61 433.458 295.178L456.22 259.357L460.167 232.324C460.371 230.927 460.857 229.586 461.596 228.382C462.334 227.178 463.309 226.136 464.462 225.319C465.616 224.502 466.923 223.928 468.305 223.63C469.687 223.333 471.115 223.318 472.503 223.588C473.89 223.858 475.209 224.406 476.378 225.199C477.548 225.993 478.544 227.015 479.306 228.204C480.069 229.393 480.581 230.724 480.814 232.117C481.046 233.51 480.993 234.935 480.657 236.307L472.508 269.625L445.659 302.79C445.31 303.222 444.868 303.571 444.366 303.809C443.864 304.048 443.315 304.171 442.76 304.169Z" fill="#E4252C"/>
<path d="M476.414 187.792C478.529 180.865 490.749 177.775 500.906 180.649C511.064 183.523 518.361 191.058 520.059 198.426C523.821 214.741 504.201 227.982 507.756 244.298C510.109 255.094 523.716 265.301 539.041 267.766C522.152 271.295 501.538 268.193 485.876 259.766C476.128 254.521 467.95 246.606 468.074 238.623C468.148 233.789 471.227 229.515 474.992 225.822C478.758 222.13 483.265 218.847 486.72 214.993C490.175 211.138 492.569 206.523 491.561 201.63C490.553 196.737 485.43 191.634 478.537 190.211L476.414 187.792Z" fill="#2F2E41"/>
<path d="M578.256 456H294.599C294.401 456 294.212 455.922 294.072 455.782C293.933 455.643 293.854 455.454 293.854 455.256C293.854 455.059 293.933 454.87 294.072 454.731C294.212 454.591 294.401 454.513 294.599 454.513H578.256C578.453 454.513 578.642 454.591 578.782 454.731C578.922 454.87 579 455.059 579 455.256C579 455.454 578.922 455.643 578.782 455.782C578.642 455.922 578.453 456 578.256 456Z" fill="#CCCCCC"/>
</g>
<defs>
<clipPath id="clip0_148_679">
<rect width="579" height="456" fill="white"/>
</clipPath>
</defs>
</svg>
