<svg width="666" height="376" viewBox="0 0 666 376" fill="none" xmlns="http://www.w3.org/2000/svg">
<g clip-path="url(#clip0_14_337)">
<path d="M568.248 238.717C568.85 238.569 569.412 238.29 569.894 237.902C570.377 237.513 570.768 237.023 571.041 236.467C571.313 235.911 571.461 235.302 571.472 234.682C571.484 234.063 571.36 233.449 571.108 232.883L582.108 222.598L574.498 220.769L565.22 230.816C564.296 231.302 563.583 232.109 563.216 233.085C562.848 234.061 562.851 235.138 563.224 236.112C563.597 237.085 564.315 237.888 565.241 238.369C566.167 238.849 567.237 238.973 568.248 238.717Z" fill="#FFB6B6"/>
<path d="M573.931 230.432L568.801 223.201L588.069 203.277L592.543 171.871C592.764 170.318 593.324 168.834 594.184 167.522C595.044 166.211 596.182 165.104 597.517 164.282C598.852 163.46 600.353 162.941 601.911 162.763C603.469 162.586 605.047 162.753 606.534 163.254C609.217 164.162 611.431 166.096 612.689 168.634C613.948 171.171 614.148 174.104 613.246 176.789L601.831 210.648L573.931 230.432Z" fill="#E4E4E4"/>
<path d="M610.109 364.249H604.415L601.705 342.289L610.11 342.29L610.109 364.249Z" fill="#FFB6B6"/>
<path d="M613.173 375.059H609.132L608.411 371.245L606.563 375.059H595.846C595.333 375.06 594.832 374.895 594.418 374.591C594.005 374.287 593.699 373.858 593.546 373.368C593.393 372.877 593.401 372.351 593.569 371.866C593.736 371.38 594.055 370.961 594.477 370.669L603.036 364.76V360.904L612.038 361.441L613.173 375.059Z" fill="#2F2E41"/>
<path d="M645.242 358.456L640.24 361.177L627.362 343.183L634.744 339.166L645.242 358.456Z" fill="#FFB6B6"/>
<path d="M653.101 366.487L649.551 368.418L647.094 365.413L647.295 369.646L637.882 374.767C637.43 375.012 636.912 375.107 636.403 375.038C635.894 374.968 635.421 374.738 635.052 374.38C634.684 374.022 634.439 373.556 634.354 373.05C634.269 372.543 634.348 372.023 634.58 371.564L639.272 362.284L637.429 358.897L645.593 355.067L653.101 366.487Z" fill="#2F2E41"/>
<path d="M612.508 356.43H600.74V314.532L593.454 287.218C588.225 267.684 586.835 247.321 589.362 227.258L589.372 227.176L589.436 227.123C589.623 226.966 608.27 211.551 620.065 223.343C628.015 231.292 620.545 259.873 620.127 261.442V310.713L612.508 356.43Z" fill="#2F2E41"/>
<path d="M612.48 158.878L612.417 158.816L597.412 159.044L589.401 177.843C581.984 189.36 589.075 195.91 589.573 196.947L588.155 211.078L587.242 220.194L585.775 234.871L620.166 223.638L616.34 208.318L620.761 186.219C621.742 181.333 621.5 176.279 620.055 171.509C618.61 166.739 616.008 162.4 612.48 158.878Z" fill="#E4E4E4"/>
<path d="M605.487 314.749L629.664 348.746L638.938 342.154L618.747 300.671L605.487 314.749Z" fill="#2F2E41"/>
<path d="M603.512 155.225C611.163 155.225 617.366 149.024 617.366 141.375C617.366 133.726 611.163 127.525 603.512 127.525C595.861 127.525 589.659 133.726 589.659 141.375C589.659 149.024 595.861 155.225 603.512 155.225Z" fill="#FFB6B6"/>
<path opacity="0.1" d="M616.873 194.955L601.763 212.385L587.242 220.194L588.155 211.078L596.706 206.277L616.873 194.955Z" fill="black"/>
<path d="M593.81 167.33L592.51 161.636C592.083 159.73 592.041 157.758 592.388 155.836C592.735 153.914 593.463 152.081 594.53 150.445C595.51 148.903 596.056 147.125 596.111 145.298C596.166 143.472 595.728 141.664 594.843 140.065C594.189 138.773 593.197 137.682 591.971 136.91C590.746 136.139 589.334 135.715 587.885 135.684H587.54V135.338C587.54 130.372 591.411 126.867 595.01 126.666C595.14 125.632 595.873 124.706 597.149 123.97C600.196 122.214 606.088 121.833 610.54 124.174C610.622 123.417 610.908 122.696 611.367 122.089C611.825 121.481 612.44 121.008 613.145 120.721C613.877 120.467 614.665 120.422 615.421 120.591C615.485 119.346 616 118.166 616.868 117.271C618.097 116.081 620.069 115.628 622.278 116.027C625.312 116.578 628.303 118.51 630.699 121.469C632.824 124.093 634.299 127.185 635.725 130.175C637.128 133.115 638.578 136.156 640.68 138.73C642.984 141.55 645.837 143.378 648.716 143.876C652.074 144.457 655.519 143.075 657.096 140.516L657.409 140.008L657.694 140.532C659.466 143.787 658.741 148.258 655.971 151.165C653.487 153.772 649.588 155.1 645.546 154.714C642.123 154.389 638.671 152.934 635.285 150.392C631.922 147.868 629.842 145.077 629.103 142.097C628.897 141.175 628.748 140.241 628.659 139.3C628.43 137.33 628.214 135.469 627.001 134.099C625.912 132.867 624.226 132.334 622.731 131.93L622.437 131.852C622.383 132.407 622.21 132.943 621.927 133.424C621.645 133.905 621.261 134.318 620.803 134.636C620.527 134.801 620.225 134.918 619.91 134.979C621.644 141.955 620.931 147.296 617.79 150.856C612.487 156.868 602.298 155.631 601.867 155.576L601.58 155.539L601.565 155.25C601.527 154.475 601.432 153.704 601.282 152.943C599.823 156.458 594.913 165.754 594.257 166.692L593.81 167.33Z" fill="#2F2E41"/>
<path d="M104.591 189.693C104.186 190.226 103.669 190.663 103.077 190.974C102.484 191.286 101.831 191.463 101.162 191.495C100.493 191.527 99.8261 191.411 99.207 191.157C98.5879 190.903 98.0321 190.516 97.5787 190.024L82.6592 196.511L84.1124 188.184L98.0574 183.3C98.935 182.594 100.041 182.233 101.167 182.288C102.293 182.342 103.359 182.807 104.164 183.595C104.97 184.383 105.458 185.439 105.537 186.563C105.615 187.687 105.279 188.801 104.591 189.693Z" fill="#A0616A"/>
<path d="M94.6348 192.293L59.9818 207.725L59.9075 207.698L20.4119 193.627C17.47 192.09 15.2271 189.487 14.1425 186.35C13.0579 183.214 13.2136 179.782 14.5777 176.756C15.3338 175.084 16.4355 173.592 17.8102 172.377C19.1849 171.161 20.8014 170.251 22.5534 169.705C24.3054 169.16 26.1531 168.991 27.9749 169.211C29.7967 169.431 31.5513 170.034 33.1231 170.981L62.5152 188.682L91.0163 184.989L94.6348 192.293Z" fill="#3F3D56"/>
<path d="M109.153 90.6864C96.0529 61.7167 96.536 24.9962 116.867 0.550293C123.669 34.4485 142.245 64.8488 169.308 86.3725C179.775 94.6355 192.277 102.736 195.137 115.76C196.916 123.864 194.394 132.435 190.034 139.494C185.674 146.553 179.596 152.36 173.587 158.082L172.913 160.041C146.768 141.943 122.253 119.656 109.153 90.6864Z" fill="#F0F0F0"/>
<path d="M117.433 0.90382C112.754 26.5186 116.23 53.7937 127.602 77.2617C130.061 82.3354 132.997 87.2684 136.928 91.349C140.79 95.2972 145.639 98.1394 150.971 99.5803C155.916 101.024 161.141 101.928 165.648 104.548C170.4 107.309 173.349 111.943 174.497 117.257C175.903 123.758 174.888 130.377 173.67 136.815C172.318 143.964 170.8 151.367 172.76 158.553C172.997 159.424 171.632 159.741 171.395 158.872C167.986 146.369 174.613 134.039 173.687 121.469C173.255 115.604 171.052 109.833 166.022 106.435C161.623 103.463 156.235 102.527 151.216 101.108C145.946 99.6192 141.213 97.3445 137.185 93.5714C133.065 89.7117 129.93 84.8831 127.352 79.8945C121.591 68.5386 117.652 56.3477 115.679 43.7684C113.348 29.4243 113.488 14.7872 116.093 0.490256C116.255 -0.394561 117.593 0.0247707 117.433 0.90382Z" fill="white"/>
<path d="M123.503 69.8285C119.259 71.1883 114.67 70.9956 110.555 69.2848C106.44 67.574 103.067 64.4565 101.039 60.489C100.631 59.6848 101.862 59.0137 102.27 59.819C104.152 63.517 107.294 66.4206 111.129 68.0059C114.964 69.5912 119.24 69.7536 123.184 68.4639C124.042 68.1846 124.356 69.5508 123.503 69.8285Z" fill="white"/>
<path d="M148.367 99.1787C152.608 91.1175 153.654 81.7544 151.297 72.9564C151.062 72.0849 152.428 71.7673 152.662 72.6378C155.098 81.7977 153.989 91.5393 149.558 99.9183C149.135 100.717 147.947 99.9727 148.367 99.1787Z" fill="white"/>
<path d="M115.15 29.8795C116.901 29.6954 118.58 29.0792 120.035 28.0863C121.489 27.0933 122.675 25.7547 123.484 24.1906C123.897 23.3873 125.084 24.1321 124.675 24.9302C123.772 26.6541 122.461 28.1309 120.857 29.2315C119.252 30.3321 117.402 31.023 115.468 31.244C115.288 31.2801 115.1 31.2461 114.944 31.149C114.788 31.0518 114.674 30.8988 114.627 30.721C114.585 30.5402 114.617 30.3503 114.715 30.1927C114.813 30.0351 114.969 29.9226 115.15 29.8795Z" fill="white"/>
<path d="M224.536 0.834106C224.292 1.34304 224.049 1.85196 223.811 2.37129C220.575 9.23039 217.901 16.341 215.816 23.6331C215.646 24.1943 215.482 24.7656 215.328 25.3305C210.493 42.9522 208.972 61.3182 210.843 79.4949C211.594 86.7272 212.894 93.8918 214.733 100.927C217.272 110.642 220.799 120.974 220.003 130.676C219.931 131.689 219.797 132.696 219.601 133.693L175.355 160.711C175.224 160.722 175.098 160.744 174.966 160.755L173.249 161.914C173.129 161.558 173.012 161.186 172.892 160.83C172.821 160.624 172.761 160.411 172.69 160.205C172.646 160.065 172.603 159.926 172.555 159.802C172.54 159.756 172.526 159.709 172.517 159.673C172.47 159.55 172.439 159.43 172.397 159.317C171.738 157.239 171.091 155.153 170.459 153.059C170.453 153.049 170.453 153.049 170.456 153.033C165.677 137.063 162.188 120.555 161.317 104.042C161.291 103.545 161.259 103.039 161.253 102.53C160.902 95.0843 161.159 87.6226 162.024 80.2192C162.511 76.1669 163.202 72.1418 164.095 68.1593C166.424 57.8737 170.357 48.0183 175.749 38.9544C186.5 20.8872 202.912 6.45892 222.997 1.21941C223.511 1.08567 224.016 0.95765 224.536 0.834106Z" fill="#F0F0F0"/>
<path d="M224.779 1.45624C205.618 19.0919 191.968 42.9618 186.915 68.5451C185.823 74.0762 185.197 79.7821 185.878 85.4062C186.584 90.8832 188.744 96.0713 192.133 100.431C195.212 104.56 198.84 108.427 200.861 113.232C202.992 118.297 202.556 123.772 200.273 128.706C197.48 134.743 192.683 139.417 187.834 143.825C182.45 148.718 176.78 153.716 174.016 160.633C173.682 161.471 172.401 160.903 172.735 160.066C177.542 148.032 190.259 142.176 197.089 131.582C200.276 126.639 201.993 120.705 200.023 114.964C198.3 109.944 194.563 105.953 191.409 101.799C188.098 97.4377 185.688 92.7725 184.745 87.3356C183.78 81.7739 184.184 76.0315 185.13 70.4968C187.369 57.9621 191.566 45.8573 197.566 34.6258C204.342 21.7695 213.269 10.1668 223.959 0.319841C224.621 -0.289351 225.437 0.851038 224.779 1.45624Z" fill="white"/>
<path d="M188.119 60.1427C183.911 58.6739 180.363 55.7576 178.108 51.9146C175.852 48.0717 175.037 43.5523 175.806 39.1637C175.965 38.2762 177.352 38.4813 177.193 39.3699C176.469 43.4553 177.229 47.665 179.336 51.2393C181.444 54.8135 184.76 57.5169 188.686 58.8614C189.539 59.1546 188.967 60.4342 188.119 60.1427Z" fill="white"/>
<path d="M190.296 98.5435C198.537 94.6598 205.011 87.8135 208.427 79.3698C208.764 78.5329 210.046 79.101 209.708 79.9369C206.137 88.717 199.386 95.8279 190.801 99.8506C189.983 100.233 189.482 98.9243 190.296 98.5435Z" fill="white"/>
<path d="M205.507 23.2175C207.016 24.125 208.728 24.6434 210.487 24.7263C212.247 24.8091 213.999 24.4537 215.587 23.6921C216.4 23.299 216.9 24.6086 216.092 24.9991C214.334 25.8324 212.398 26.2226 210.454 26.1354C208.51 26.0482 206.616 25.4863 204.939 24.4988C204.774 24.419 204.644 24.279 204.578 24.1074C204.512 23.9357 204.513 23.7452 204.582 23.5746C204.658 23.4053 204.798 23.2729 204.971 23.206C205.144 23.1392 205.337 23.1433 205.507 23.2175Z" fill="white"/>
<path d="M394.184 105.903C381.083 76.9332 381.566 40.2127 401.897 15.7668C408.699 49.6651 427.275 80.0654 454.338 101.589C464.805 109.852 477.308 117.953 480.167 130.977C481.947 139.08 479.425 147.652 475.065 154.71C470.704 161.77 464.627 167.576 458.618 173.299L457.944 175.257C431.798 157.16 407.284 134.873 394.184 105.903Z" fill="#F0F0F0"/>
<path d="M402.463 16.1203C397.784 41.7351 401.26 69.0102 412.633 92.4781C415.092 97.5519 418.028 102.485 421.958 106.565C425.82 110.514 430.669 113.356 436.002 114.797C440.946 116.24 446.172 117.144 450.679 119.764C455.431 122.526 458.379 127.159 459.528 132.473C460.933 138.975 459.918 145.594 458.701 152.032C457.349 159.18 455.831 166.584 457.79 173.769C458.028 174.64 456.663 174.957 456.426 174.088C453.017 161.586 459.644 149.255 458.718 136.685C458.285 130.82 456.083 125.05 451.052 121.651C446.654 118.68 441.266 117.743 436.247 116.325C430.977 114.836 426.243 112.561 422.216 108.788C418.096 104.928 414.961 100.1 412.383 95.1109C406.622 83.755 402.683 71.5641 400.71 58.9849C398.378 44.6408 398.519 30.0036 401.124 15.7067C401.286 14.8219 402.624 15.2412 402.463 16.1203Z" fill="white"/>
<path d="M408.534 85.045C404.29 86.4049 399.701 86.2121 395.586 84.5013C391.47 82.7905 388.098 79.673 386.069 75.7055C385.662 74.9013 386.893 74.2303 387.301 75.0355C389.183 78.7335 392.325 81.6372 396.16 83.2225C399.995 84.8077 404.271 84.9702 408.215 83.6805C409.073 83.4012 409.387 84.7674 408.534 85.045Z" fill="white"/>
<path d="M433.398 114.395C437.639 106.334 438.685 96.9708 436.327 88.1729C436.093 87.3014 437.458 86.9838 437.692 87.8542C440.128 97.0142 439.02 106.756 434.588 115.135C434.165 115.933 432.977 115.189 433.398 114.395Z" fill="white"/>
<path d="M400.18 45.096C401.932 44.912 403.611 44.2958 405.066 43.3028C406.52 42.3099 407.705 40.9713 408.515 39.4072C408.927 38.6039 410.115 39.3486 409.705 40.1467C408.803 41.8706 407.492 43.3474 405.887 44.448C404.283 45.5486 402.433 46.2396 400.499 46.4605C400.319 46.4966 400.131 46.4627 399.975 46.3655C399.818 46.2684 399.705 46.1154 399.657 45.9376C399.616 45.7567 399.648 45.5669 399.746 45.4093C399.844 45.2517 400 45.1391 400.18 45.096Z" fill="white"/>
<path d="M509.566 16.0505C509.323 16.5595 509.079 17.0684 508.842 17.5877C505.605 24.4468 502.931 31.5575 500.847 38.8495C500.677 39.4107 500.513 39.982 500.359 40.547C495.524 58.1686 494.003 76.5346 495.874 94.7113C496.625 101.944 497.925 109.108 499.763 116.143C502.303 125.859 505.829 136.191 505.034 145.892C504.962 146.905 504.828 147.913 504.631 148.909L460.386 175.928C460.254 175.939 460.129 175.96 459.997 175.971L458.28 177.131C458.159 176.775 458.042 176.403 457.922 176.046C457.852 175.84 457.791 175.628 457.72 175.421C457.677 175.282 457.633 175.142 457.585 175.019C457.571 174.972 457.556 174.926 457.548 174.889C457.5 174.766 457.469 174.646 457.428 174.533C456.768 172.455 456.122 170.369 455.489 168.275C455.483 168.265 455.483 168.265 455.487 168.249C450.707 152.28 447.219 135.772 446.348 119.259C446.322 118.762 446.289 118.255 446.283 117.746C445.932 110.301 446.19 102.839 447.055 95.4356C447.541 91.3833 448.232 87.3582 449.126 83.3757C451.455 73.0901 455.387 63.2347 460.779 54.1708C471.531 36.1036 487.942 21.6753 508.028 16.4358C508.542 16.3021 509.046 16.1741 509.566 16.0505Z" fill="#F0F0F0"/>
<path d="M509.81 16.6728C490.649 34.3084 476.998 58.1783 471.946 83.7617C470.854 89.2928 470.227 94.9986 470.908 100.623C471.614 106.1 473.774 111.288 477.164 115.648C480.243 119.777 483.871 123.644 485.892 128.449C488.023 133.514 487.587 138.989 485.304 143.923C482.51 149.96 477.714 154.634 472.865 159.041C467.481 163.935 461.81 168.933 459.047 175.85C458.712 176.688 457.431 176.119 457.766 175.282C462.573 163.248 475.29 157.392 482.12 146.798C485.307 141.855 487.023 135.922 485.053 130.181C483.331 125.16 479.593 121.169 476.44 117.016C473.129 112.654 470.719 107.989 469.776 102.552C468.81 96.9904 469.215 91.2481 470.161 85.7133C472.4 73.1786 476.596 61.0738 482.596 49.8424C489.373 36.986 498.299 25.3834 508.99 15.5364C509.651 14.9272 510.468 16.0676 509.81 16.6728Z" fill="white"/>
<path d="M473.15 75.3593C468.942 73.8904 465.394 70.9741 463.138 67.1312C460.883 63.2882 460.067 58.7689 460.837 54.3803C460.996 53.4928 462.383 53.6978 462.224 54.5865C461.499 58.6719 462.26 62.8816 464.367 66.4558C466.475 70.0301 469.791 72.7334 473.717 74.0779C474.57 74.3711 473.998 75.6508 473.15 75.3593Z" fill="white"/>
<path d="M475.327 113.76C483.568 109.876 490.041 103.03 493.457 94.5862C493.795 93.7494 495.076 94.3175 494.739 95.1533C491.168 103.933 484.417 111.044 475.832 115.067C475.014 115.45 474.513 114.141 475.327 113.76Z" fill="white"/>
<path d="M490.537 38.4339C492.047 39.3414 493.758 39.8599 495.518 39.9427C497.277 40.0255 499.03 39.6701 500.618 38.9085C501.431 38.5155 501.931 39.8251 501.123 40.2155C499.365 41.0489 497.429 41.439 495.484 41.3518C493.54 41.2646 491.647 40.7027 489.97 39.7153C489.804 39.6354 489.675 39.4955 489.609 39.3238C489.542 39.1521 489.544 38.9616 489.613 38.7911C489.689 38.6218 489.829 38.4893 490.002 38.4225C490.175 38.3556 490.367 38.3597 490.537 38.4339Z" fill="white"/>
<path d="M129.236 296.265H466.279V101.184C466.277 99.7222 465.696 98.3208 464.662 97.2873C463.628 96.2538 462.226 95.6724 460.764 95.6708H134.751C133.289 95.6724 131.887 96.2538 130.853 97.2873C129.82 98.3208 129.238 99.7222 129.236 101.184V296.265Z" fill="#CACACA"/>
<path d="M455.865 103.296H139.65V282.774H455.865V103.296Z" fill="white"/>
<path d="M128.943 290.986V315.059C128.943 316.057 129.139 317.045 129.521 317.967C129.903 318.889 130.463 319.727 131.169 320.433C131.875 321.138 132.713 321.698 133.635 322.08C134.557 322.462 135.546 322.659 136.544 322.659H260.944V370.168H259.291C259.162 370.168 259.033 370.193 258.913 370.243C258.794 370.292 258.685 370.365 258.593 370.457C258.501 370.548 258.429 370.657 258.379 370.777C258.329 370.897 258.304 371.025 258.304 371.155V374.459C258.304 374.589 258.329 374.717 258.379 374.837C258.429 374.957 258.501 375.066 258.593 375.157C258.685 375.249 258.794 375.322 258.913 375.371C259.033 375.421 259.162 375.446 259.291 375.446H336.517C336.647 375.446 336.775 375.421 336.895 375.371C337.015 375.322 337.123 375.249 337.215 375.157C337.307 375.066 337.38 374.957 337.429 374.837C337.479 374.717 337.504 374.589 337.504 374.459V371.155C337.504 371.025 337.479 370.897 337.429 370.777C337.38 370.657 337.307 370.548 337.215 370.457C337.123 370.365 337.015 370.292 336.895 370.243C336.775 370.193 336.647 370.168 336.517 370.168H334.864V322.659H459.264C460.262 322.659 461.251 322.462 462.173 322.08C463.095 321.698 463.933 321.138 464.639 320.433C465.345 319.727 465.905 318.889 466.287 317.967C466.669 317.045 466.865 316.057 466.865 315.059V290.986L128.943 290.986Z" fill="#3F3D56"/>
<path d="M237.977 192.055H160.918C160.381 192.054 159.866 191.84 159.486 191.461C159.107 191.081 158.893 190.567 158.892 190.03V158.77C158.893 158.233 159.107 157.718 159.486 157.338C159.866 156.959 160.381 156.745 160.918 156.745H237.977C238.514 156.745 239.029 156.959 239.409 157.338C239.789 157.718 240.002 158.233 240.003 158.77V190.03C240.002 190.567 239.789 191.081 239.409 191.461C239.029 191.84 238.514 192.054 237.977 192.055Z" fill="#E4252C"/>
<path d="M230.64 207.05H168.255C167.611 207.05 166.992 206.794 166.537 206.338C166.081 205.883 165.825 205.265 165.825 204.62C165.825 203.976 166.081 203.358 166.537 202.902C166.992 202.446 167.611 202.19 168.255 202.19H230.64C233.774 202.146 233.806 207.094 230.64 207.05Z" fill="#E4E4E4"/>
<path d="M230.64 218.188H168.255C167.611 218.188 166.992 217.932 166.537 217.476C166.081 217.02 165.825 216.402 165.825 215.758C165.825 215.113 166.081 214.495 166.537 214.039C166.992 213.584 167.611 213.328 168.255 213.328H230.64C233.774 213.284 233.806 218.232 230.64 218.188Z" fill="#E4E4E4"/>
<path d="M230.64 229.325H168.255C167.611 229.325 166.992 229.069 166.537 228.614C166.081 228.158 165.825 227.54 165.825 226.895C165.825 226.251 166.081 225.633 166.537 225.177C166.992 224.721 167.611 224.465 168.255 224.465H230.64C233.774 224.422 233.806 229.369 230.64 229.325Z" fill="#E4E4E4"/>
<path d="M336.287 192.055H259.228C258.691 192.054 258.176 191.84 257.796 191.461C257.416 191.081 257.203 190.567 257.202 190.03V158.77C257.203 158.233 257.416 157.718 257.796 157.338C258.176 156.959 258.691 156.745 259.228 156.745H336.287C336.824 156.745 337.339 156.959 337.719 157.338C338.098 157.718 338.312 158.233 338.313 158.77V190.03C338.312 190.567 338.098 191.081 337.719 191.461C337.339 191.84 336.824 192.054 336.287 192.055Z" fill="#E4252C"/>
<path d="M328.95 207.05H266.565C265.921 207.05 265.302 206.794 264.847 206.338C264.391 205.883 264.135 205.265 264.135 204.62C264.135 203.976 264.391 203.358 264.847 202.902C265.302 202.446 265.921 202.19 266.565 202.19H328.95C332.084 202.146 332.116 207.094 328.95 207.05Z" fill="#E4E4E4"/>
<path d="M328.95 218.188H266.565C265.921 218.188 265.302 217.932 264.847 217.476C264.391 217.02 264.135 216.402 264.135 215.758C264.135 215.113 264.391 214.495 264.847 214.039C265.302 213.584 265.921 213.328 266.565 213.328H328.95C332.084 213.284 332.116 218.232 328.95 218.188Z" fill="#E4E4E4"/>
<path d="M328.95 229.325H266.565C265.921 229.325 265.302 229.069 264.847 228.614C264.391 228.158 264.135 227.54 264.135 226.895C264.135 226.251 264.391 225.633 264.847 225.177C265.302 224.721 265.921 224.465 266.565 224.465H328.95C332.084 224.422 332.116 229.369 328.95 229.325Z" fill="#E4E4E4"/>
<path d="M434.597 192.055H357.538C357.001 192.054 356.486 191.84 356.106 191.461C355.726 191.081 355.513 190.567 355.512 190.03V158.77C355.513 158.233 355.726 157.718 356.106 157.338C356.486 156.959 357.001 156.745 357.538 156.745H434.597C435.134 156.745 435.649 156.959 436.029 157.338C436.408 157.718 436.622 158.233 436.623 158.77V190.03C436.622 190.567 436.408 191.081 436.029 191.461C435.649 191.84 435.134 192.054 434.597 192.055Z" fill="#E4252C"/>
<path d="M427.26 207.05H364.875C364.23 207.05 363.612 206.794 363.156 206.338C362.701 205.883 362.445 205.265 362.445 204.62C362.445 203.976 362.701 203.358 363.156 202.902C363.612 202.446 364.23 202.19 364.875 202.19H427.26C430.394 202.146 430.425 207.094 427.26 207.05Z" fill="#E4E4E4"/>
<path d="M427.26 218.188H364.875C364.231 218.187 363.614 217.93 363.159 217.475C362.704 217.019 362.449 216.401 362.449 215.758C362.449 215.114 362.704 214.496 363.159 214.041C363.614 213.585 364.231 213.329 364.875 213.328H427.26C430.394 213.284 430.426 218.232 427.26 218.188Z" fill="#E4E4E4"/>
<path d="M427.26 229.325H364.875C364.23 229.325 363.612 229.069 363.156 228.614C362.701 228.158 362.445 227.54 362.445 226.895C362.445 226.251 362.701 225.633 363.156 225.177C363.612 224.721 364.23 224.465 364.875 224.465H427.26C430.394 224.422 430.425 229.369 427.26 229.325Z" fill="#E4E4E4"/>
<path d="M566.275 157.167L566.485 196.349L567.344 196.3L568.16 210.806L566.566 210.893L566.61 219.608L567.887 219.583L568.145 234.102L566.692 234.128L567.384 361.985C567.399 365.333 566.085 368.55 563.73 370.93C561.375 373.311 558.172 374.659 554.823 374.681L413.554 375.446C410.205 375.462 406.987 374.148 404.606 371.794C402.225 369.439 400.876 366.236 400.855 362.888L399.746 158.07C399.731 154.722 401.045 151.505 403.4 149.125C405.755 146.744 408.958 145.396 412.307 145.374L553.576 144.609C556.924 144.595 560.141 145.909 562.522 148.263C564.902 150.617 566.252 153.819 566.275 157.167Z" fill="#3F3D56"/>
<path d="M555.028 366.626L413.261 367.395C412.229 367.399 411.237 366.994 410.504 366.268C409.77 365.542 409.354 364.555 409.347 363.523L408.229 157.343C408.224 156.311 408.63 155.32 409.355 154.586C410.081 153.853 411.069 153.437 412.101 153.43L553.867 152.661C554.9 152.657 555.891 153.062 556.625 153.788C557.359 154.514 557.775 155.501 557.782 156.533L558.9 362.713C558.904 363.745 558.499 364.736 557.773 365.47C557.047 366.203 556.06 366.619 555.028 366.626Z" fill="white"/>
<path d="M482.424 149.934C483.017 149.934 483.498 149.453 483.498 148.86C483.498 148.266 483.017 147.785 482.424 147.785C481.831 147.785 481.35 148.266 481.35 148.86C481.35 149.453 481.831 149.934 482.424 149.934Z" fill="white"/>
<path d="M524.589 210.694H442.539C441.967 210.694 441.419 210.466 441.015 210.062C440.611 209.658 440.383 209.11 440.383 208.538V175.254C440.383 174.682 440.611 174.134 441.015 173.73C441.419 173.326 441.967 173.098 442.539 173.098H524.589C525.161 173.098 525.709 173.326 526.114 173.73C526.518 174.134 526.745 174.682 526.746 175.254V208.538C526.745 209.11 526.518 209.658 526.114 210.062C525.709 210.466 525.161 210.694 524.589 210.694Z" fill="#E4252C"/>
<path d="M516.777 226.661H450.352C449.666 226.661 449.007 226.389 448.522 225.903C448.037 225.418 447.764 224.76 447.764 224.074C447.764 223.388 448.037 222.729 448.522 222.244C449.007 221.759 449.666 221.486 450.352 221.486H516.777C520.114 221.44 520.147 226.708 516.777 226.661Z" fill="#E4E4E4"/>
<path d="M516.777 238.52H450.352C449.666 238.519 449.009 238.246 448.525 237.761C448.04 237.275 447.768 236.618 447.768 235.932C447.768 235.247 448.04 234.59 448.525 234.104C449.009 233.619 449.666 233.346 450.352 233.345H516.777C520.114 233.299 520.147 238.567 516.777 238.52Z" fill="#E4E4E4"/>
<path d="M516.777 250.379H450.352C449.666 250.379 449.007 250.106 448.522 249.621C448.037 249.136 447.764 248.477 447.764 247.791C447.764 247.105 448.037 246.447 448.522 245.962C449.007 245.477 449.666 245.204 450.352 245.204H516.777C520.114 245.157 520.147 250.426 516.777 250.379Z" fill="#E4E4E4"/>
<path d="M524.589 307.274H442.539C441.967 307.273 441.419 307.046 441.015 306.642C440.611 306.237 440.383 305.689 440.383 305.118V271.833C440.383 271.262 440.611 270.714 441.015 270.309C441.419 269.905 441.967 269.678 442.539 269.677H524.589C525.161 269.678 525.709 269.905 526.114 270.309C526.518 270.714 526.745 271.262 526.746 271.833V305.118C526.745 305.689 526.518 306.237 526.114 306.642C525.709 307.046 525.161 307.273 524.589 307.274Z" fill="#E4252C"/>
<path d="M516.777 323.241H450.352C449.666 323.241 449.007 322.968 448.522 322.483C448.037 321.998 447.764 321.339 447.764 320.653C447.764 319.967 448.037 319.309 448.522 318.824C449.007 318.338 449.666 318.066 450.352 318.066H516.777C520.114 318.019 520.147 323.288 516.777 323.241Z" fill="#E4E4E4"/>
<path d="M516.777 335.099H450.352C449.666 335.098 449.009 334.825 448.525 334.34C448.04 333.855 447.768 333.197 447.768 332.512C447.768 331.826 448.04 331.169 448.525 330.684C449.009 330.199 449.666 329.926 450.352 329.925H516.777C520.114 329.878 520.147 335.146 516.777 335.099Z" fill="#E4E4E4"/>
<path d="M516.777 346.958H450.352C449.666 346.958 449.007 346.685 448.522 346.2C448.037 345.715 447.764 345.057 447.764 344.371C447.764 343.685 448.037 343.026 448.522 342.541C449.007 342.056 449.666 341.783 450.352 341.783H516.777C520.114 341.737 520.147 347.005 516.777 346.958Z" fill="#E4E4E4"/>
<path d="M160.031 365.385L159.758 252.469L160.787 252.467L160.738 231.699L159.708 231.701L159.624 197.033C159.621 195.738 159.363 194.456 158.864 193.261C158.366 192.066 157.637 190.981 156.719 190.067C155.801 189.154 154.712 188.43 153.514 187.938C152.316 187.445 151.033 187.193 149.738 187.196L76.3454 187.373C75.0503 187.377 73.7684 187.635 72.573 188.133C71.3776 188.631 70.2922 189.36 69.3785 190.278C68.4649 191.196 67.741 192.284 67.2483 193.482C66.7555 194.679 66.5034 195.962 66.5065 197.257L66.5649 221.43L64.925 221.471L65.2872 235.991L66.6 235.959L66.6078 239.162L65.2108 239.197L65.573 253.718L66.6429 253.691L66.9134 365.61C66.9141 366.905 67.1707 368.188 67.6683 369.384C68.166 370.58 68.895 371.667 69.8135 372.581C70.732 373.494 71.8219 374.218 73.0208 374.71C74.2196 375.202 75.5038 375.452 76.7996 375.447L150.192 375.269C152.807 375.26 155.311 374.214 157.155 372.361C159 370.508 160.034 367.999 160.031 365.385Z" fill="#3F3D56"/>
<path d="M74.5554 370.928C73.6401 370.599 72.8482 369.996 72.2874 369.202C71.7267 368.407 71.4241 367.46 71.421 366.487L71.01 196.358C71.0071 195.105 71.5022 193.902 72.3863 193.014C73.2704 192.126 74.4711 191.625 75.7244 191.622L91.34 191.584L91.1466 192.061C90.8112 192.889 90.6846 193.786 90.7779 194.674C90.8712 195.563 91.1815 196.414 91.6816 197.154C92.1816 197.894 92.856 198.5 93.6454 198.918C94.4348 199.336 95.3149 199.554 96.2082 199.552L130.864 199.468C131.727 199.393 132.559 199.116 133.295 198.659C134.031 198.202 134.648 197.579 135.098 196.839C135.542 196.112 135.807 195.291 135.872 194.442C135.938 193.593 135.801 192.74 135.475 191.954L135.279 191.478L151.409 191.439C152.662 191.438 153.864 191.933 154.752 192.817C155.64 193.7 156.142 194.9 156.146 196.153L156.539 358.471C156.543 361.794 155.228 364.984 152.883 367.34C150.538 369.696 147.353 371.025 144.029 371.037L76.1583 371.201C75.6122 371.203 75.0699 371.111 74.5554 370.928Z" fill="white"/>
<path d="M101.291 195.617C101.885 195.617 102.366 195.136 102.366 194.543C102.366 193.949 101.885 193.469 101.291 193.469C100.698 193.469 100.217 193.949 100.217 194.543C100.217 195.136 100.698 195.617 101.291 195.617Z" fill="white"/>
<path d="M142.823 247.903H87.0642C86.6757 247.902 86.3032 247.748 86.0284 247.473C85.7536 247.198 85.5991 246.826 85.5986 246.438V223.818C85.5991 223.43 85.7536 223.057 86.0284 222.783C86.3032 222.508 86.6757 222.353 87.0642 222.353H142.823C143.212 222.353 143.585 222.508 143.859 222.783C144.134 223.057 144.289 223.43 144.289 223.818V246.438C144.289 246.826 144.134 247.198 143.859 247.473C143.585 247.748 143.212 247.902 142.823 247.903Z" fill="#E4252C"/>
<path d="M137.514 258.753H92.3735C92.1423 258.754 91.9132 258.709 91.6994 258.621C91.4857 258.532 91.2914 258.403 91.1277 258.24C90.964 258.076 90.8341 257.882 90.7455 257.669C90.6569 257.455 90.6113 257.226 90.6113 256.995C90.6113 256.764 90.6569 256.535 90.7455 256.321C90.8341 256.108 90.964 255.914 91.1277 255.75C91.2914 255.587 91.4857 255.458 91.6994 255.37C91.9132 255.281 92.1423 255.236 92.3735 255.237H137.514C139.782 255.205 139.805 258.785 137.514 258.753Z" fill="#E4E4E4"/>
<path d="M137.514 266.812H92.3735C91.907 266.812 91.4597 266.627 91.1299 266.297C90.8 265.968 90.6147 265.52 90.6147 265.054C90.6147 264.588 90.8 264.14 91.1299 263.811C91.4597 263.481 91.907 263.296 92.3735 263.296H137.514C139.782 263.264 139.805 266.844 137.514 266.812Z" fill="#E4E4E4"/>
<path d="M137.514 274.871H92.3735C92.1423 274.872 91.9132 274.827 91.6994 274.738C91.4857 274.65 91.2914 274.521 91.1277 274.357C90.964 274.194 90.8341 274 90.7455 273.787C90.6569 273.573 90.6113 273.344 90.6113 273.113C90.6113 272.882 90.6569 272.653 90.7455 272.439C90.8341 272.226 90.964 272.032 91.1277 271.868C91.2914 271.705 91.4857 271.576 91.6994 271.487C91.9132 271.399 92.1423 271.354 92.3735 271.355H137.514C139.782 271.323 139.805 274.903 137.514 274.871Z" fill="#E4E4E4"/>
<path d="M142.823 315.685H87.0642C86.6757 315.685 86.3032 315.53 86.0284 315.256C85.7536 314.981 85.5991 314.608 85.5986 314.22V291.601C85.5991 291.212 85.7536 290.84 86.0284 290.565C86.3032 290.29 86.6757 290.136 87.0642 290.135H142.823C143.212 290.136 143.585 290.29 143.859 290.565C144.134 290.84 144.289 291.212 144.289 291.601V314.22C144.289 314.608 144.134 314.981 143.859 315.256C143.585 315.53 143.212 315.685 142.823 315.685Z" fill="#E4252C"/>
<path d="M137.514 326.536H92.3735C92.1423 326.536 91.9132 326.491 91.6994 326.403C91.4857 326.315 91.2914 326.185 91.1277 326.022C90.964 325.859 90.8341 325.665 90.7455 325.451C90.6569 325.238 90.6113 325.009 90.6113 324.778C90.6113 324.546 90.6569 324.317 90.7455 324.104C90.8341 323.89 90.964 323.696 91.1277 323.533C91.2914 323.37 91.4857 323.24 91.6994 323.152C91.9132 323.064 92.1423 323.019 92.3735 323.019H137.514C139.782 322.988 139.805 326.568 137.514 326.536Z" fill="#E4E4E4"/>
<path d="M137.514 334.595H92.3735C91.907 334.595 91.4597 334.409 91.1299 334.08C90.8 333.75 90.6147 333.303 90.6147 332.836C90.6147 332.37 90.8 331.923 91.1299 331.593C91.4597 331.263 91.907 331.078 92.3735 331.078H137.514C139.782 331.046 139.805 334.627 137.514 334.595Z" fill="#E4E4E4"/>
<path d="M137.514 342.654H92.3735C92.1423 342.654 91.9132 342.609 91.6994 342.521C91.4857 342.433 91.2914 342.303 91.1277 342.14C90.964 341.977 90.8341 341.783 90.7455 341.569C90.6569 341.355 90.6113 341.127 90.6113 340.895C90.6113 340.664 90.6569 340.435 90.7455 340.222C90.8341 340.008 90.964 339.814 91.1277 339.651C91.2914 339.487 91.4857 339.358 91.6994 339.27C91.9132 339.182 92.1423 339.137 92.3735 339.137H137.514C139.782 339.105 139.805 342.686 137.514 342.654Z" fill="#E4E4E4"/>
<path d="M18.1784 369.267L24.2374 369.267L27.1195 345.903H18.177L18.1784 369.267Z" fill="#A0616A"/>
<path d="M16.6328 367.289L18.3382 367.289L24.9962 364.582L28.5646 367.289C30.5813 367.289 32.5158 368.09 33.9417 369.516C35.3677 370.941 36.1689 372.875 36.169 374.891V375.138L16.6332 375.139L16.6328 367.289Z" fill="#2F2E41"/>
<path d="M41.6575 365.45L47.567 366.784L55.5264 344.629L46.8039 342.66L41.6575 365.45Z" fill="#A0616A"/>
<path d="M40.5853 363.181L42.2488 363.556L49.3397 362.382L52.2241 365.808C54.1912 366.252 55.9017 367.459 56.9786 369.164C58.0554 370.869 58.4109 372.931 57.9668 374.898L57.9124 375.139L38.8562 370.837L40.5853 363.181Z" fill="#2F2E41"/>
<path d="M10.5048 226.433C7.66418 234.998 7.96449 244.295 11.1876 254.274L12.5654 310.456C12.5654 310.456 10.5126 347.299 17.1367 360.264H26.7435L31.4999 307.091L32.0972 271.402L52.6932 301.512L39.575 359.395L51.3987 360.451L72.686 297.635L46.4217 236.692L10.5048 226.433Z" fill="#2F2E41"/>
<path d="M48.1347 238.492L13.2022 232.906C12.286 232.612 11.4442 232.124 10.7345 231.475C10.0248 230.825 9.4641 230.03 9.0908 229.144C8.71751 228.257 8.5405 227.301 8.57192 226.339C8.60334 225.378 8.84245 224.435 9.27284 223.575L10.857 220.407L10.2416 187.124C10.1675 182.795 11.235 178.522 13.3369 174.736C15.4388 170.95 18.5009 167.785 22.2152 165.558L25.6217 163.521L27.3433 159.15L43.2178 159.537L43.2641 165.27L48.9491 174.333L48.9489 174.371L48.5922 223.701L47.0254 228.792L49.3945 234.713L48.1347 238.492Z" fill="#3F3D56"/>
<path d="M36.7342 153.715C44.7002 153.715 51.1579 147.259 51.1579 139.295C51.1579 131.331 44.7002 124.875 36.7342 124.875C28.7682 124.875 22.3105 131.331 22.3105 139.295C22.3105 147.259 28.7682 153.715 36.7342 153.715Z" fill="#A0616A"/>
<path d="M21.7147 142.439C21.2845 140.627 21.482 138.077 21.7252 136.253C22.0365 133.847 22.85 131.533 24.1128 129.462C25.3757 127.391 27.0597 125.608 29.0559 124.229C29.8212 123.648 30.7307 123.286 31.6863 123.184C32.1639 123.144 32.642 123.256 33.0522 123.504C33.4623 123.752 33.7834 124.123 33.9695 124.565C34.21 123.964 34.5711 123.42 35.0304 122.964C35.4896 122.509 36.0374 122.153 36.6398 121.917C37.8498 121.454 39.1513 121.278 40.4409 121.405C42.9406 121.611 45.3379 122.49 47.3784 123.948C49.4188 125.406 51.0263 127.39 52.0303 129.688C52.4156 130.603 53.4916 127.223 53.9798 128.087C54.4283 128.986 55.2109 129.673 56.16 130.003C57.1164 130.269 57.5049 134.209 57.8813 133.29C58.1733 133.969 58.2888 134.711 58.2169 135.447C58.1449 136.182 57.888 136.888 57.47 137.497C57.052 138.107 56.4865 138.6 55.8261 138.933C55.1658 139.265 54.4321 139.425 53.6934 139.397C52.7278 139.272 51.7706 139.089 50.8272 138.848C49.0948 138.63 47.3425 139.054 45.901 140.039C44.4596 141.024 43.4287 142.502 43.0032 144.195C42.7399 143.211 42.3193 142.275 41.7577 141.425C41.4726 141.002 41.0905 140.653 40.6434 140.408C40.1963 140.162 39.6969 140.027 39.187 140.013C38.6994 140.069 38.2285 140.224 37.8031 140.468C37.3777 140.713 37.0067 141.042 36.7131 141.435C36.0781 142.18 35.6012 143.05 34.9615 143.791C33.0845 145.966 30.5459 151.04 27.871 150.67C25.7601 150.378 22.3021 144.913 21.7147 142.439Z" fill="#2F2E41"/>
<path d="M90.5041 227.966C89.8902 228.232 89.2253 228.361 88.5563 228.343C87.8872 228.325 87.2302 228.161 86.6316 227.861C86.0331 227.562 85.5074 227.135 85.0917 226.611C84.676 226.086 84.3804 225.477 84.2256 224.826L68.0386 223.191L73.3788 216.638L87.9316 219.195C89.0428 219.008 90.1841 219.235 91.1393 219.832C92.0945 220.43 92.7972 221.357 93.1143 222.438C93.4314 223.519 93.3409 224.679 92.8598 225.698C92.3787 226.717 91.5405 227.524 90.5041 227.966Z" fill="#A0616A"/>
<path d="M80.548 225.366L42.7727 221.887L42.7208 221.827L15.1514 190.245C13.337 187.466 12.6539 184.098 13.2419 180.832C13.8299 177.566 15.6444 174.648 18.3141 172.676C19.7913 171.587 21.4823 170.824 23.2758 170.436C25.0693 170.048 26.9246 170.044 28.7197 170.425C30.5148 170.805 32.209 171.562 33.6906 172.644C35.1723 173.726 36.4078 175.11 37.316 176.704L54.2966 206.514L80.9641 217.226L80.548 225.366Z" fill="#3F3D56"/>
<path d="M665.176 376H0.823795C0.605739 375.999 0.396829 375.912 0.242863 375.758C0.0888964 375.604 0.00244141 375.394 0.00244141 375.176C0.00244141 374.958 0.0888964 374.749 0.242863 374.595C0.396829 374.441 0.605739 374.354 0.823795 374.353H665.176C665.395 374.353 665.604 374.44 665.759 374.594C665.913 374.749 666 374.958 666 375.176C666 375.395 665.913 375.604 665.759 375.759C665.604 375.913 665.395 376 665.176 376Z" fill="#CCCCCC"/>
<path d="M549.642 228.798C550.258 228.857 550.88 228.781 551.464 228.574C552.048 228.366 552.58 228.034 553.021 227.599C553.462 227.164 553.803 226.638 554.019 226.058C554.235 225.477 554.321 224.856 554.271 224.239L568.055 218.172L561.479 213.929L549.398 220.341C548.366 220.494 547.426 221.019 546.756 221.819C546.086 222.618 545.732 223.635 545.763 224.678C545.793 225.72 546.204 226.715 546.919 227.475C547.634 228.234 548.603 228.705 549.642 228.798Z" fill="#FFB6B6"/>
<path d="M557.746 222.86L555.298 214.339L580.075 201.911L594.691 173.755C595.414 172.363 596.434 171.147 597.679 170.194C598.925 169.241 600.364 168.573 601.897 168.239C603.429 167.904 605.016 167.911 606.546 168.259C608.075 168.607 609.509 169.287 610.746 170.252C612.978 171.996 614.427 174.554 614.774 177.365C615.122 180.175 614.34 183.009 612.601 185.244L590.622 213.42L557.746 222.86Z" fill="#E4E4E4"/>
</g>
<defs>
<clipPath id="clip0_14_337">
<rect width="666" height="376" fill="white"/>
</clipPath>
</defs>
</svg>
