<svg width="208" height="26" viewBox="0 0 208 26" fill="none" xmlns="http://www.w3.org/2000/svg">
<path d="M13.674 25.5232C10.9181 25.5232 8.63667 23.2701 9.14673 20.5618C9.46651 18.8637 9.95042 17.199 10.5935 15.593C11.8543 12.4449 13.7022 9.5842 16.0318 7.17469C18.3613 4.76514 21.127 2.85378 24.1706 1.54974C25.6734 0.90595 27.2293 0.416397 28.816 0.08571C31.5141 -0.476555 33.7711 1.80868 33.7711 4.56464V20.533C33.7711 23.289 31.537 25.5232 28.781 25.5232H13.674Z" fill="#F1938D"/>
<path d="M20.0971 25.5232C22.853 25.5232 25.1344 23.2701 24.6244 20.5618C24.3047 18.8637 23.8207 17.199 23.1776 15.593C21.9168 12.4449 20.069 9.5842 17.7394 7.17469C15.4098 4.76514 12.6442 2.85378 9.60048 1.54974C8.0978 0.90595 6.54186 0.416397 4.95508 0.08571C2.25707 -0.476555 0 1.80868 0 4.56464V20.533C0 23.289 2.23416 25.5232 4.99012 25.5232H20.0971Z" fill="#E4252C"/>
<path d="M43.3115 20.5318V5.66128H46.0261V20.5318H43.3115ZM48.6669 20.5318V9.67333H51.1221V11.8091L50.9225 11.4298C51.1753 10.7778 51.5877 10.2854 52.16 9.95278C52.7454 9.6068 53.4241 9.43381 54.196 9.43381C54.9944 9.43381 55.6996 9.6068 56.3118 9.95278C56.9371 10.2988 57.4229 10.7844 57.7689 11.4099C58.1148 12.022 58.2879 12.734 58.2879 13.5457V20.5318H55.673V14.1644C55.673 13.6854 55.5798 13.2729 55.3936 12.9269C55.2073 12.5809 54.9478 12.3148 54.6151 12.1285C54.2958 11.9289 53.9165 11.8291 53.4774 11.8291C53.0515 11.8291 52.6723 11.9289 52.3396 12.1285C52.0069 12.3148 51.7474 12.5809 51.5612 12.9269C51.3749 13.2729 51.2817 13.6854 51.2817 14.1644V20.5318H48.6669ZM63.5775 20.5318L59.306 9.67333H62.1603L65.2542 18.2164H64.1963L67.3101 9.67333H70.1644L65.8929 20.5318H63.5775ZM76.5646 20.7713C75.4468 20.7713 74.4687 20.5185 73.6304 20.0129C72.792 19.5072 72.14 18.8219 71.6743 17.9569C71.2086 17.0919 70.9756 16.1338 70.9756 15.0826C70.9756 13.9915 71.2086 13.0267 71.6743 12.1883C72.1533 11.3367 72.7987 10.6647 73.6104 10.1723C74.4355 9.67999 75.3537 9.43381 76.365 9.43381C77.2167 9.43381 77.9618 9.57353 78.6005 9.85298C79.2527 10.1324 79.8049 10.5184 80.2573 11.0107C80.7098 11.503 81.0557 12.0686 81.2952 12.7073C81.5347 13.3328 81.6545 14.0114 81.6545 14.7433C81.6545 14.9296 81.6412 15.1225 81.6146 15.3221C81.6013 15.5217 81.5681 15.6947 81.5148 15.8411H73.1314V13.8451H80.0377L78.8001 14.7832C78.9199 14.1711 78.8867 13.6255 78.7003 13.1464C78.5274 12.6674 78.2347 12.2881 77.8221 12.0087C77.4229 11.7293 76.9372 11.5895 76.365 11.5895C75.8195 11.5895 75.3337 11.7293 74.9079 12.0087C74.4821 12.2749 74.156 12.6741 73.9298 13.2063C73.7169 13.7253 73.6371 14.3573 73.6903 15.1026C73.6371 15.768 73.7236 16.3601 73.9498 16.8791C74.1893 17.3848 74.5353 17.7773 74.9877 18.0567C75.4535 18.3362 75.9857 18.4759 76.5845 18.4759C77.1833 18.4759 77.6891 18.3494 78.1015 18.0966C78.5274 17.8438 78.86 17.5045 79.0996 17.0787L81.2154 18.1166C81.0025 18.6356 80.6699 19.0947 80.2174 19.4939C79.7649 19.8931 79.226 20.2058 78.6005 20.432C77.9885 20.6583 77.3098 20.7713 76.5646 20.7713ZM88.5869 20.6516C87.3627 20.6516 86.4112 20.3189 85.7325 19.6536C85.0672 18.9749 84.7345 18.0235 84.7345 16.7992V12.0087H82.8582V9.67333H83.0578C83.5902 9.67333 84.0027 9.53361 84.2954 9.25416C84.5882 8.97472 84.7345 8.56885 84.7345 8.03658V7.19824H87.3493V9.67333H89.8444V12.0087H87.3493V16.6595C87.3493 17.0188 87.4092 17.3249 87.529 17.5777C87.6621 17.8305 87.8617 18.0235 88.1278 18.1565C88.4072 18.2896 88.7599 18.3561 89.1857 18.3561C89.2789 18.3561 89.3853 18.3494 89.5051 18.3362C89.6382 18.3229 89.7645 18.3095 89.8843 18.2963V20.5318C89.6981 20.5585 89.4851 20.585 89.2456 20.6117C89.006 20.6383 88.7865 20.6516 88.5869 20.6516ZM95.1366 20.7713C94.3781 20.7713 93.7194 20.6449 93.1605 20.3921C92.6016 20.1393 92.1691 19.78 91.8631 19.3142C91.557 18.8352 91.404 18.283 91.404 17.6575C91.404 17.0587 91.537 16.5265 91.8032 16.0607C92.0693 15.5816 92.4819 15.1824 93.0407 14.863C93.5996 14.5437 94.3048 14.3174 95.1566 14.1844L98.7095 13.6055V15.6016L95.6556 16.1206C95.1366 16.2137 94.7507 16.38 94.4979 16.6196C94.245 16.8591 94.1186 17.1718 94.1186 17.5577C94.1186 17.9303 94.2583 18.2297 94.5378 18.4559C94.8305 18.6688 95.1898 18.7753 95.6157 18.7753C96.1612 18.7753 96.6402 18.6622 97.0528 18.436C97.4786 18.1964 97.8046 17.8704 98.0309 17.4579C98.2704 17.0454 98.3902 16.5929 98.3902 16.1006V13.3061C98.3902 12.8404 98.2038 12.4545 97.8313 12.1484C97.472 11.8291 96.9929 11.6694 96.3941 11.6694C95.8352 11.6694 95.3362 11.8224 94.8971 12.1285C94.4712 12.4212 94.1585 12.8138 93.9589 13.3061L91.8232 12.2682C92.036 11.696 92.3687 11.2036 92.8212 10.7911C93.2869 10.3653 93.8325 10.0326 94.4579 9.7931C95.0833 9.55357 95.762 9.43381 96.4939 9.43381C97.3855 9.43381 98.1706 9.60015 98.8492 9.93282C99.5279 10.2522 100.054 10.7046 100.426 11.2901C100.812 11.8623 101.005 12.5344 101.005 13.3061V20.5318H98.5299V18.6755L99.0888 18.6356C98.8093 19.1014 98.4766 19.4939 98.0908 19.8132C97.7048 20.1193 97.2657 20.3589 96.7734 20.5318C96.2809 20.6915 95.7354 20.7713 95.1366 20.7713ZM103.422 20.5318V9.67333H105.877V12.0885L105.678 11.7293C105.93 10.9176 106.322 10.352 106.855 10.0326C107.4 9.71326 108.053 9.55357 108.811 9.55357H109.45V11.869H108.512C107.766 11.869 107.168 12.1018 106.715 12.5676C106.262 13.02 106.037 13.6587 106.037 14.4838V20.5318H103.422ZM110.887 20.5318V9.67333H113.502V20.5318H110.887ZM110.887 8.45575V5.66128H113.502V8.45575H110.887ZM120.048 20.7713C118.89 20.7713 117.879 20.4986 117.014 19.953C116.163 19.3941 115.577 18.6423 115.258 17.6974L117.214 16.7593C117.493 17.3714 117.879 17.8504 118.371 18.1964C118.877 18.5425 119.436 18.7154 120.048 18.7154C120.527 18.7154 120.906 18.6089 121.186 18.3961C121.465 18.1832 121.605 17.9037 121.605 17.5577C121.605 17.3448 121.545 17.1718 121.425 17.0387C121.32 16.8923 121.166 16.7726 120.966 16.6795C120.781 16.573 120.574 16.4865 120.347 16.42L118.571 15.921C117.653 15.6548 116.954 15.249 116.475 14.7034C116.01 14.1577 115.777 13.5124 115.777 12.7672C115.777 12.1018 115.943 11.523 116.276 11.0306C116.622 10.5249 117.094 10.1324 117.693 9.85298C118.306 9.57353 119.004 9.43381 119.789 9.43381C120.814 9.43381 121.719 9.67999 122.503 10.1723C123.289 10.6647 123.848 11.3567 124.18 12.2482L122.184 13.1864C121.998 12.694 121.685 12.3014 121.246 12.0087C120.807 11.716 120.315 11.5696 119.769 11.5696C119.329 11.5696 118.984 11.6694 118.731 11.869C118.478 12.0686 118.351 12.3281 118.351 12.6474C118.351 12.847 118.405 13.02 118.511 13.1664C118.618 13.3128 118.765 13.4326 118.95 13.5257C119.15 13.6188 119.376 13.7053 119.629 13.7852L121.365 14.3042C122.258 14.5703 122.942 14.9695 123.421 15.5018C123.914 16.034 124.16 16.6861 124.16 17.4579C124.16 18.1099 123.987 18.6888 123.641 19.1945C123.296 19.6868 122.817 20.0727 122.204 20.3522C121.592 20.6316 120.873 20.7713 120.048 20.7713ZM135.246 20.7713C134.302 20.7713 133.424 20.5984 132.611 20.2524C131.813 19.9064 131.121 19.4273 130.535 18.8152C129.963 18.1898 129.544 17.4646 129.278 16.6395L131.533 15.6615C131.893 16.5131 132.412 17.1851 133.09 17.6775C133.769 18.1565 134.534 18.3961 135.386 18.3961C135.865 18.3961 136.278 18.3229 136.623 18.1765C136.983 18.0168 137.256 17.8039 137.442 17.5378C137.641 17.2716 137.741 16.9522 137.741 16.5796C137.741 16.1405 137.608 15.7812 137.342 15.5018C137.089 15.2091 136.703 14.9828 136.184 14.8231L133.33 13.9049C132.172 13.5457 131.301 13.0067 130.715 12.2881C130.13 11.5696 129.837 10.7245 129.837 9.75318C129.837 8.90153 130.043 8.14968 130.455 7.49764C130.882 6.8456 131.467 6.33993 132.212 5.98065C132.97 5.60805 133.836 5.42175 134.807 5.42175C135.699 5.42175 136.517 5.58144 137.262 5.9008C138.008 6.20687 138.646 6.63934 139.178 7.19824C139.724 7.74383 140.13 8.38921 140.396 9.1344L138.16 10.1324C137.868 9.38723 137.429 8.81503 136.843 8.41582C136.258 8.00331 135.579 7.79705 134.807 7.79705C134.355 7.79705 133.956 7.87689 133.609 8.03658C133.264 8.18296 132.99 8.39586 132.791 8.67531C132.605 8.94145 132.511 9.26082 132.511 9.63341C132.511 10.0459 132.645 10.4119 132.911 10.7312C133.177 11.0373 133.583 11.2768 134.128 11.4498L136.863 12.3081C138.047 12.694 138.933 13.2263 139.518 13.9049C140.116 14.5836 140.416 15.4219 140.416 16.42C140.416 17.2716 140.196 18.0235 139.757 18.6755C139.318 19.3275 138.713 19.8399 137.941 20.2125C137.169 20.585 136.271 20.7713 135.246 20.7713ZM142.641 20.5318V5.42175H145.256V15.3221L144.258 15.0227L149.368 9.67333H152.622L148.61 14.0447L152.701 20.5318H149.707L146.154 14.903L147.711 14.5836L144.438 18.0966L145.256 16.4998V20.5318H142.641ZM159.275 20.7713C158.212 20.7713 157.239 20.5251 156.361 20.0328C155.497 19.5405 154.804 18.8684 154.285 18.0168C153.78 17.1652 153.527 16.1937 153.527 15.1026C153.527 14.0114 153.78 13.04 154.285 12.1883C154.804 11.3367 155.497 10.6647 156.361 10.1723C157.226 9.67999 158.198 9.43381 159.275 9.43381C160.34 9.43381 161.305 9.67999 162.17 10.1723C163.035 10.6647 163.721 11.3367 164.226 12.1883C164.745 13.0267 165.004 13.9981 165.004 15.1026C165.004 16.1937 164.745 17.1652 164.226 18.0168C163.707 18.8684 163.015 19.5405 162.15 20.0328C161.285 20.5251 160.327 20.7713 159.275 20.7713ZM159.275 18.3761C159.861 18.3761 160.373 18.2364 160.812 17.9569C161.265 17.6775 161.618 17.2915 161.87 16.7992C162.137 16.2935 162.269 15.728 162.269 15.1026C162.269 14.4638 162.137 13.9049 161.87 13.4259C161.618 12.9336 161.265 12.5476 160.812 12.2682C160.373 11.9755 159.861 11.8291 159.275 11.8291C158.677 11.8291 158.152 11.9755 157.699 12.2682C157.246 12.5476 156.887 12.9336 156.621 13.4259C156.368 13.9049 156.241 14.4638 156.241 15.1026C156.241 15.728 156.368 16.2935 156.621 16.7992C156.887 17.2915 157.246 17.6775 157.699 17.9569C158.152 18.2364 158.677 18.3761 159.275 18.3761ZM166.987 20.5318V9.67333H169.442V12.1883L169.163 11.7692C169.362 10.984 169.762 10.3986 170.36 10.0127C170.959 9.62676 171.665 9.43381 172.476 9.43381C173.367 9.43381 174.153 9.66668 174.832 10.1324C175.51 10.5982 175.949 11.2103 176.149 11.9688L175.41 12.0287C175.743 11.1637 176.242 10.5184 176.907 10.0925C177.573 9.65337 178.338 9.43381 179.203 9.43381C179.974 9.43381 180.66 9.6068 181.259 9.95278C181.871 10.2988 182.35 10.7844 182.696 11.4099C183.042 12.022 183.215 12.734 183.215 13.5457V20.5318H180.6V14.1644C180.6 13.6854 180.513 13.2729 180.341 12.9269C180.168 12.5809 179.928 12.3148 179.622 12.1285C179.316 11.9289 178.943 11.8291 178.504 11.8291C178.092 11.8291 177.726 11.9289 177.406 12.1285C177.087 12.3148 176.841 12.5809 176.668 12.9269C176.495 13.2729 176.408 13.6854 176.408 14.1644V20.5318H173.794V14.1644C173.794 13.6854 173.707 13.2729 173.534 12.9269C173.361 12.5809 173.115 12.3148 172.796 12.1285C172.489 11.9289 172.124 11.8291 171.698 11.8291C171.286 11.8291 170.919 11.9289 170.6 12.1285C170.281 12.3148 170.034 12.5809 169.861 12.9269C169.689 13.2729 169.602 13.6854 169.602 14.1644V20.5318H166.987ZM190.478 20.7713C189.426 20.7713 188.488 20.5251 187.663 20.0328C186.838 19.5271 186.186 18.8419 185.707 17.9769C185.228 17.1119 184.988 16.1538 184.988 15.1026C184.988 14.038 185.228 13.0799 185.707 12.2283C186.186 11.3767 186.838 10.698 187.663 10.1923C188.502 9.68664 189.433 9.43381 190.458 9.43381C191.282 9.43381 192.015 9.60015 192.653 9.93282C193.305 10.2522 193.817 10.7046 194.19 11.2901L193.791 11.8291V5.42175H196.406V20.5318H193.931V18.436L194.21 18.9549C193.837 19.5405 193.318 19.9929 192.653 20.3123C191.988 20.6184 191.262 20.7713 190.478 20.7713ZM190.757 18.3761C191.356 18.3761 191.881 18.2364 192.334 17.9569C192.786 17.6775 193.138 17.2915 193.392 16.7992C193.657 16.3069 193.791 15.7413 193.791 15.1026C193.791 14.4771 193.657 13.9182 193.392 13.4259C193.138 12.9202 192.786 12.5277 192.334 12.2482C191.881 11.9688 191.356 11.8291 190.757 11.8291C190.171 11.8291 189.645 11.9755 189.18 12.2682C188.714 12.5476 188.348 12.9336 188.082 13.4259C187.829 13.9049 187.703 14.4638 187.703 15.1026C187.703 15.7413 187.829 16.3069 188.082 16.7992C188.348 17.2915 188.714 17.6775 189.18 17.9569C189.645 18.2364 190.171 18.3761 190.757 18.3761ZM202.132 20.7713C201.373 20.7713 200.714 20.6449 200.155 20.3921C199.597 20.1393 199.164 19.78 198.858 19.3142C198.553 18.8352 198.399 18.283 198.399 17.6575C198.399 17.0587 198.533 16.5265 198.798 16.0607C199.065 15.5816 199.477 15.1824 200.036 14.863C200.595 14.5437 201.3 14.3174 202.152 14.1844L205.704 13.6055V15.6016L202.651 16.1206C202.132 16.2137 201.746 16.38 201.493 16.6196C201.24 16.8591 201.114 17.1718 201.114 17.5577C201.114 17.9303 201.253 18.2297 201.533 18.4559C201.826 18.6688 202.185 18.7753 202.611 18.7753C203.157 18.7753 203.636 18.6622 204.048 18.436C204.474 18.1964 204.8 17.8704 205.026 17.4579C205.265 17.0454 205.385 16.5929 205.385 16.1006V13.3061C205.385 12.8404 205.199 12.4545 204.826 12.1484C204.467 11.8291 203.988 11.6694 203.389 11.6694C202.83 11.6694 202.331 11.8224 201.892 12.1285C201.467 12.4212 201.153 12.8138 200.954 13.3061L198.818 12.2682C199.032 11.696 199.364 11.2036 199.816 10.7911C200.282 10.3653 200.828 10.0326 201.453 9.7931C202.079 9.55357 202.757 9.43381 203.489 9.43381C204.381 9.43381 205.166 9.60015 205.844 9.93282C206.523 10.2522 207.049 10.7046 207.421 11.2901C207.807 11.8623 208 12.5344 208 13.3061V20.5318H205.525V18.6755L206.084 18.6356C205.804 19.1014 205.472 19.4939 205.086 19.8132C204.7 20.1193 204.261 20.3589 203.768 20.5318C203.276 20.6915 202.73 20.7713 202.132 20.7713Z" fill="#0A0A0A"/>
</svg>
