<svg width="258" height="32" viewBox="0 0 258 32" fill="none" xmlns="http://www.w3.org/2000/svg">
<path d="M16.9157 31.5737C13.5064 31.5737 10.6841 28.7866 11.3151 25.4362C11.7107 23.3356 12.3093 21.2763 13.1049 19.2895C14.6646 15.395 16.9505 11.8562 19.8323 8.87553C22.7142 5.89477 26.1354 3.5303 29.9006 1.91712C31.7596 1.12072 33.6843 0.515108 35.6473 0.106028C38.9849 -0.589528 41.777 2.23745 41.777 5.64674V25.4006C41.777 28.8099 39.0132 31.5737 35.6039 31.5737H16.9157Z" fill="#F1938D"/>
<path d="M24.8613 31.5737C28.2706 31.5737 31.0928 28.7866 30.4619 25.4362C30.0664 23.3356 29.4677 21.2763 28.6721 19.2895C27.1124 15.395 24.8265 11.8562 21.9447 8.87553C19.0628 5.89477 15.6416 3.5303 11.8764 1.91712C10.0175 1.12072 8.09267 0.515108 6.12973 0.106028C2.79213 -0.589528 0 2.23745 0 5.64674V25.4006C0 28.8099 2.76379 31.5737 6.17308 31.5737H24.8613Z" fill="#E4252C"/>
<path d="M53.5791 25.3991V7.00334H56.9373V25.3991H53.5791ZM60.2041 25.3991V11.9665H63.2412V14.6086L62.9943 14.1394C63.307 13.3328 63.8173 12.7237 64.5252 12.3122C65.2494 11.8842 66.089 11.6702 67.0438 11.6702C68.0315 11.6702 68.9039 11.8842 69.6612 12.3122C70.4348 12.7402 71.0357 13.341 71.4637 14.1147C71.8917 14.8719 72.1058 15.7527 72.1058 16.7568V25.3991H68.8711V17.5223C68.8711 16.9296 68.7557 16.4194 68.5254 15.9913C68.2949 15.5633 67.9739 15.2341 67.5624 15.0036C67.1673 14.7567 66.6981 14.6333 66.1549 14.6333C65.6281 14.6333 65.1589 14.7567 64.7474 15.0036C64.3358 15.2341 64.0148 15.5633 63.7844 15.9913C63.5539 16.4194 63.4387 16.9296 63.4387 17.5223V25.3991H60.2041ZM78.6493 25.3991L73.3652 11.9665H76.8962L80.7235 22.5348H79.4148L83.2668 11.9665H86.7978L81.5136 25.3991H78.6493ZM94.7152 25.6954C93.3324 25.6954 92.1225 25.3827 91.0854 24.7571C90.0483 24.1315 89.2417 23.2838 88.6655 22.2138C88.0895 21.1438 87.8013 19.9585 87.8013 18.6581C87.8013 17.3083 88.0895 16.1148 88.6655 15.0777C89.2581 14.0242 90.0566 13.1928 91.0607 12.5838C92.0813 11.9747 93.2172 11.6702 94.4682 11.6702C95.5219 11.6702 96.4436 11.843 97.2338 12.1887C98.0405 12.5344 98.7236 13.0118 99.2832 13.6209C99.843 14.2299 100.271 14.9296 100.567 15.7197C100.864 16.4935 101.012 17.333 101.012 18.2383C101.012 18.4688 100.995 18.7075 100.962 18.9544C100.946 19.2013 100.905 19.4153 100.839 19.5964H90.4681V17.1272H99.0116L97.4807 18.2877C97.6288 17.5305 97.5877 16.8556 97.3572 16.2629C97.1433 15.6703 96.7812 15.2012 96.2708 14.8555C95.7769 14.5098 95.1762 14.3369 94.4682 14.3369C93.7934 14.3369 93.1925 14.5098 92.6657 14.8555C92.139 15.1848 91.7357 15.6786 91.4558 16.337C91.1924 16.979 91.0937 17.7609 91.1595 18.6828C91.0937 19.5059 91.2007 20.2384 91.4805 20.8804C91.7768 21.506 92.2048 21.9916 92.7645 22.3373C93.3407 22.683 93.9991 22.8558 94.7398 22.8558C95.4806 22.8558 96.1062 22.6994 96.6165 22.3866C97.1433 22.0739 97.5548 21.6541 97.8511 21.1273L100.468 22.4113C100.205 23.0533 99.7936 23.6213 99.2339 24.1151C98.6742 24.6089 98.0075 24.9958 97.2338 25.2756C96.4766 25.5555 95.637 25.6954 94.7152 25.6954ZM109.587 25.5473C108.073 25.5473 106.896 25.1358 106.056 24.3126C105.233 23.4731 104.822 22.2961 104.822 20.7816V14.8555H102.501V11.9665H102.748C103.406 11.9665 103.917 11.7936 104.279 11.448C104.641 11.1023 104.822 10.6002 104.822 9.94173V8.90465H108.057V11.9665H111.143V14.8555H108.057V20.6088C108.057 21.0533 108.131 21.4319 108.279 21.7446C108.443 22.0574 108.69 22.2961 109.02 22.4607C109.365 22.6253 109.802 22.7076 110.328 22.7076C110.444 22.7076 110.575 22.6994 110.723 22.6829C110.888 22.6665 111.044 22.65 111.192 22.6336V25.3991C110.962 25.4321 110.699 25.4649 110.402 25.4979C110.106 25.5308 109.834 25.5473 109.587 25.5473ZM117.69 25.6954C116.752 25.6954 115.937 25.539 115.245 25.2263C114.554 24.9135 114.019 24.4691 113.64 23.8929C113.262 23.3003 113.072 22.6171 113.072 21.8434C113.072 21.1026 113.237 20.4442 113.566 19.868C113.895 19.2754 114.406 18.7816 115.097 18.3865C115.789 17.9914 116.661 17.7115 117.715 17.5469L122.11 16.8309V19.3001L118.332 19.9421C117.69 20.0573 117.212 20.2631 116.9 20.5594C116.587 20.8557 116.431 21.2425 116.431 21.72C116.431 22.1808 116.603 22.5512 116.949 22.8311C117.311 23.0944 117.756 23.2262 118.282 23.2262C118.957 23.2262 119.55 23.0863 120.06 22.8064C120.587 22.5101 120.99 22.1068 121.27 21.5965C121.567 21.0862 121.715 20.5264 121.715 19.9174V16.4605C121.715 15.8843 121.484 15.407 121.023 15.0283C120.579 14.6333 119.986 14.4357 119.245 14.4357C118.554 14.4357 117.937 14.625 117.394 15.0036C116.867 15.3658 116.48 15.8514 116.233 16.4605L113.591 15.1765C113.854 14.4687 114.266 13.8595 114.826 13.3493C115.402 12.8224 116.077 12.4109 116.85 12.1146C117.624 11.8183 118.463 11.6702 119.369 11.6702C120.472 11.6702 121.443 11.876 122.283 12.2875C123.122 12.6826 123.773 13.2422 124.233 13.9666C124.711 14.6744 124.949 15.5058 124.949 16.4605V25.3991H121.888V23.1027L122.579 23.0533C122.233 23.6295 121.822 24.1151 121.344 24.5102C120.867 24.8888 120.324 25.1851 119.715 25.3991C119.105 25.5966 118.431 25.6954 117.69 25.6954ZM127.939 25.3991V11.9665H130.977V14.9543L130.73 14.5098C131.042 13.5057 131.527 12.806 132.186 12.4109C132.861 12.0159 133.668 11.8183 134.606 11.8183H135.396V14.6826H134.236C133.314 14.6826 132.573 14.9707 132.014 15.5469C131.453 16.1065 131.174 16.8967 131.174 17.9173V25.3991H127.939ZM137.174 25.3991V11.9665H140.409V25.3991H137.174ZM137.174 10.4603V7.00334H140.409V10.4603H137.174ZM148.507 25.6954C147.075 25.6954 145.824 25.358 144.754 24.683C143.701 23.9916 142.976 23.0616 142.581 21.8928L145.001 20.7323C145.346 21.4894 145.824 22.0821 146.433 22.5101C147.059 22.9381 147.75 23.1521 148.507 23.1521C149.099 23.1521 149.569 23.0204 149.914 22.757C150.26 22.4937 150.433 22.148 150.433 21.72C150.433 21.4566 150.359 21.2425 150.211 21.0779C150.08 20.8968 149.89 20.7487 149.643 20.6335C149.413 20.5018 149.158 20.3948 148.877 20.3125L146.68 19.6952C145.544 19.3659 144.68 18.8639 144.087 18.1889C143.512 17.514 143.223 16.7157 143.223 15.7938C143.223 14.9707 143.429 14.2546 143.84 13.6456C144.268 13.02 144.852 12.5344 145.593 12.1887C146.351 11.843 147.215 11.6702 148.186 11.6702C149.454 11.6702 150.574 11.9747 151.544 12.5838C152.516 13.1928 153.207 14.0489 153.618 15.1518L151.149 16.3123C150.919 15.7033 150.532 15.2176 149.988 14.8555C149.445 14.4934 148.837 14.3123 148.161 14.3123C147.618 14.3123 147.191 14.4357 146.877 14.6826C146.565 14.9296 146.408 15.2506 146.408 15.6456C146.408 15.8926 146.475 16.1065 146.606 16.2876C146.738 16.4688 146.919 16.6169 147.149 16.7321C147.396 16.8473 147.676 16.9543 147.988 17.0531L150.137 17.6951C151.24 18.0244 152.087 18.5182 152.68 19.1766C153.29 19.8351 153.593 20.6418 153.593 21.5965C153.593 22.4031 153.38 23.1191 152.951 23.7447C152.524 24.3538 151.932 24.8312 151.174 25.1769C150.417 25.5226 149.528 25.6954 148.507 25.6954ZM167.308 25.6954C166.14 25.6954 165.053 25.4815 164.048 25.0534C163.061 24.6254 162.205 24.0328 161.48 23.2756C160.773 22.5018 160.254 21.6048 159.925 20.5841L162.715 19.3742C163.159 20.4277 163.801 21.2591 164.641 21.8681C165.48 22.4607 166.427 22.757 167.48 22.757C168.073 22.757 168.584 22.6665 169.011 22.4854C169.456 22.2879 169.794 22.0245 170.024 21.6953C170.271 21.366 170.394 20.9709 170.394 20.51C170.394 19.9668 170.23 19.5223 169.9 19.1766C169.588 18.8145 169.11 18.5346 168.468 18.3371L164.937 17.2013C163.505 16.7568 162.427 16.0901 161.702 15.2012C160.979 14.3123 160.616 13.2669 160.616 12.0653C160.616 11.0117 160.872 10.0816 161.381 9.27503C161.909 8.46842 162.633 7.84288 163.554 7.39842C164.493 6.9375 165.563 6.70703 166.764 6.70703C167.868 6.70703 168.881 6.90457 169.802 7.29965C170.724 7.67827 171.514 8.21326 172.172 8.90465C172.847 9.57958 173.35 10.378 173.678 11.2998L170.913 12.5344C170.551 11.6126 170.008 10.9047 169.283 10.4109C168.56 9.90058 167.72 9.64542 166.764 9.64542C166.205 9.64542 165.711 9.74419 165.283 9.94173C164.856 10.1228 164.517 10.3862 164.27 10.7319C164.041 11.0611 163.925 11.4562 163.925 11.9171C163.925 12.4274 164.09 12.8801 164.419 13.2752C164.748 13.6538 165.251 13.9501 165.925 14.1641L169.308 15.2259C170.773 15.7033 171.868 16.3617 172.592 17.2013C173.333 18.0408 173.703 19.0779 173.703 20.3125C173.703 21.366 173.431 22.2961 172.888 23.1027C172.345 23.9093 171.597 24.5431 170.641 25.004C169.687 25.4649 168.576 25.6954 167.308 25.6954ZM176.456 25.3991V6.70703H179.691V18.9544L178.456 18.584L184.777 11.9665H188.802L183.839 17.3741L188.901 25.3991H185.197L180.802 18.4359L182.728 18.0408L178.678 22.3866L179.691 20.4113V25.3991H176.456ZM197.033 25.6954C195.717 25.6954 194.515 25.3908 193.428 24.7818C192.359 24.1728 191.502 23.3414 190.86 22.2879C190.236 21.2344 189.922 20.0326 189.922 18.6828C189.922 17.333 190.236 16.1312 190.86 15.0777C191.502 14.0242 192.359 13.1928 193.428 12.5838C194.499 11.9747 195.7 11.6702 197.033 11.6702C198.351 11.6702 199.545 11.9747 200.614 12.5838C201.684 13.1928 202.532 14.0242 203.157 15.0777C203.799 16.1148 204.12 17.3164 204.12 18.6828C204.12 20.0326 203.799 21.2344 203.157 22.2879C202.515 23.3414 201.66 24.1728 200.589 24.7818C199.52 25.3908 198.335 25.6954 197.033 25.6954ZM197.033 22.7323C197.758 22.7323 198.392 22.5595 198.935 22.2138C199.495 21.8681 199.931 21.3907 200.243 20.7816C200.573 20.1561 200.737 19.4565 200.737 18.6828C200.737 17.8926 200.573 17.2013 200.243 16.6086C199.931 15.9996 199.495 15.5222 198.935 15.1765C198.392 14.8144 197.758 14.6333 197.033 14.6333C196.293 14.6333 195.643 14.8144 195.083 15.1765C194.523 15.5222 194.079 15.9996 193.749 16.6086C193.437 17.2013 193.28 17.8926 193.28 18.6828C193.28 19.4565 193.437 20.1561 193.749 20.7816C194.079 21.3907 194.523 21.8681 195.083 22.2138C195.643 22.5595 196.293 22.7323 197.033 22.7323ZM206.573 25.3991V11.9665H209.61V15.0777L209.265 14.5592C209.512 13.5879 210.006 12.8637 210.746 12.3863C211.487 11.9089 212.36 11.6702 213.364 11.6702C214.466 11.6702 215.438 11.9583 216.277 12.5344C217.117 13.1106 217.66 13.8678 217.907 14.8061L216.993 14.8802C217.405 13.8101 218.022 13.0118 218.845 12.485C219.669 11.9418 220.615 11.6702 221.685 11.6702C222.639 11.6702 223.488 11.8842 224.228 12.3122C224.985 12.7402 225.578 13.341 226.006 14.1147C226.435 14.8719 226.648 15.7527 226.648 16.7568V25.3991H223.413V17.5223C223.413 16.9296 223.306 16.4194 223.093 15.9913C222.879 15.5633 222.583 15.2341 222.204 15.0036C221.825 14.7567 221.364 14.6333 220.821 14.6333C220.311 14.6333 219.858 14.7567 219.463 15.0036C219.068 15.2341 218.763 15.5633 218.549 15.9913C218.336 16.4194 218.228 16.9296 218.228 17.5223V25.3991H214.993V17.5223C214.993 16.9296 214.886 16.4194 214.672 15.9913C214.459 15.5633 214.154 15.2341 213.759 15.0036C213.38 14.7567 212.928 14.6333 212.401 14.6333C211.891 14.6333 211.438 14.7567 211.043 15.0036C210.648 15.2341 210.343 15.5633 210.129 15.9913C209.915 16.4194 209.808 16.9296 209.808 17.5223V25.3991H206.573ZM235.632 25.6954C234.331 25.6954 233.171 25.3908 232.151 24.7818C231.13 24.1562 230.324 23.3085 229.731 22.2385C229.138 21.1684 228.842 19.9832 228.842 18.6828C228.842 17.3658 229.138 16.1806 229.731 15.1271C230.324 14.0736 231.13 13.2341 232.151 12.6085C233.188 11.983 234.34 11.6702 235.608 11.6702C236.628 11.6702 237.534 11.876 238.324 12.2875C239.13 12.6826 239.764 13.2422 240.225 13.9666L239.731 14.6333V6.70703H242.966V25.3991H239.904V22.8064L240.25 23.4484C239.788 24.1728 239.146 24.7324 238.324 25.1275C237.5 25.5061 236.603 25.6954 235.632 25.6954ZM235.978 22.7323C236.719 22.7323 237.368 22.5595 237.929 22.2138C238.488 21.8681 238.924 21.3907 239.238 20.7816C239.566 20.1726 239.731 19.4729 239.731 18.6828C239.731 17.9091 239.566 17.2177 239.238 16.6086C238.924 15.9831 238.488 15.4975 237.929 15.1518C237.368 14.8061 236.719 14.6333 235.978 14.6333C235.253 14.6333 234.603 14.8144 234.027 15.1765C233.451 15.5222 232.998 15.9996 232.669 16.6086C232.356 17.2013 232.2 17.8926 232.2 18.6828C232.2 19.4729 232.356 20.1726 232.669 20.7816C232.998 21.3907 233.451 21.8681 234.027 22.2138C234.603 22.5595 235.253 22.7323 235.978 22.7323ZM250.049 25.6954C249.111 25.6954 248.296 25.539 247.605 25.2263C246.913 24.9135 246.379 24.4691 246 23.8929C245.622 23.3003 245.432 22.6171 245.432 21.8434C245.432 21.1026 245.597 20.4442 245.925 19.868C246.255 19.2754 246.765 18.7816 247.456 18.3865C248.148 17.9914 249.021 17.7115 250.074 17.5469L254.469 16.8309V19.3001L250.691 19.9421C250.049 20.0573 249.573 20.2631 249.259 20.5594C248.947 20.8557 248.79 21.2425 248.79 21.72C248.79 22.1808 248.963 22.5512 249.308 22.8311C249.671 23.0944 250.116 23.2262 250.642 23.2262C251.317 23.2262 251.91 23.0863 252.42 22.8064C252.947 22.5101 253.35 22.1068 253.63 21.5965C253.926 21.0862 254.074 20.5264 254.074 19.9174V16.4605C254.074 15.8843 253.844 15.407 253.383 15.0283C252.938 14.6333 252.345 14.4357 251.605 14.4357C250.913 14.4357 250.296 14.625 249.753 15.0036C249.227 15.3658 248.839 15.8514 248.592 16.4605L245.95 15.1765C246.214 14.4687 246.626 13.8595 247.185 13.3493C247.761 12.8224 248.437 12.4109 249.21 12.1146C249.984 11.8183 250.823 11.6702 251.728 11.6702C252.832 11.6702 253.802 11.876 254.642 12.2875C255.481 12.6826 256.132 13.2422 256.593 13.9666C257.07 14.6744 257.309 15.5058 257.309 16.4605V25.3991H254.247V23.1027L254.938 23.0533C254.593 23.6295 254.181 24.1151 253.704 24.5102C253.227 24.8888 252.684 25.1851 252.074 25.3991C251.465 25.5966 250.79 25.6954 250.049 25.6954Z" fill="black"/>
</svg>
