<svg width="382" height="196" viewBox="0 0 382 196" fill="none" xmlns="http://www.w3.org/2000/svg">
<g clip-path="url(#clip0_149_1869)">
<path d="M18.5503 191.119C25.458 196.102 34.4098 196.352 43.0627 195.74C44.2709 195.655 45.4707 195.554 46.6593 195.446C46.6664 195.444 46.6759 195.445 46.6832 195.443C46.7403 195.438 46.7975 195.432 46.8522 195.429C47.0975 195.406 47.3429 195.383 47.586 195.36L47.5286 195.47L47.3484 195.81C47.4131 195.696 47.4778 195.585 47.5426 195.471C47.5617 195.437 47.583 195.402 47.6019 195.368C49.8435 191.462 52.0668 187.412 52.6339 182.952C53.22 178.322 51.5726 173.079 47.5036 170.803C46.97 170.506 46.4049 170.269 45.8187 170.097C45.5754 170.023 45.3288 169.963 45.0793 169.909C43.5533 169.57 41.9645 169.644 40.4764 170.123C38.9883 170.603 37.6545 171.47 36.6122 172.637C35.57 173.804 34.8568 175.228 34.5461 176.762C34.2355 178.296 34.3384 179.885 34.8445 181.367C31.3947 177.824 32.0382 172.077 33.2282 167.274C34.4205 162.471 35.8639 157.127 33.4389 152.813C32.0908 150.412 29.7202 148.922 27.0598 148.322C26.9782 148.305 26.8967 148.287 26.8149 148.272C23.6451 147.629 20.3498 148.207 17.5871 149.891C12.5002 153.101 9.88743 159.188 9.03946 165.15C7.67318 174.744 10.6967 185.452 18.5503 191.119Z" fill="#F2F2F2"/>
<path d="M20.7804 175.738C20.981 177.855 21.4886 179.93 22.2873 181.9C23.0234 183.643 24.0156 185.266 25.231 186.715C27.7577 189.677 30.9577 191.987 34.5617 193.452C37.2878 194.571 40.144 195.339 43.0625 195.74C44.2708 195.655 45.4705 195.554 46.6591 195.446C46.6663 195.444 46.6757 195.445 46.683 195.443C46.7401 195.438 46.7974 195.432 46.852 195.429C47.0974 195.406 47.3428 195.383 47.5858 195.36L47.5284 195.47L47.3482 195.81C47.413 195.696 47.4777 195.585 47.5425 195.471C47.5615 195.436 47.5829 195.402 47.6018 195.368C45.4138 193.185 43.7802 190.509 42.8378 187.563C41.8955 184.617 41.6718 181.489 42.1857 178.439C42.7234 175.41 43.9682 172.552 45.8186 170.097C45.5752 170.023 45.3286 169.963 45.0792 169.909C44.3759 170.872 43.7591 171.895 43.2358 172.967C41.3582 176.789 40.7592 181.114 41.5274 185.303C42.2416 189.094 44.021 192.602 46.6566 195.415C46.4258 195.399 46.1928 195.38 45.9647 195.359C41.6455 194.993 37.335 194.063 33.4174 192.158C30.0687 190.57 27.1614 188.181 24.9517 185.202C22.5791 181.925 21.5336 177.984 21.354 173.977C21.2157 169.661 21.6675 165.347 22.6966 161.153C23.6946 156.877 25.2114 152.74 27.2131 148.833C27.2579 148.744 27.2669 148.642 27.2383 148.547C27.2098 148.452 27.1458 148.371 27.0596 148.322C26.9878 148.274 26.8998 148.255 26.8148 148.272C26.7731 148.283 26.7345 148.303 26.7018 148.331C26.6691 148.359 26.6431 148.394 26.6258 148.434C26.3789 148.916 26.1366 149.399 25.9034 149.888C23.9619 153.955 22.5325 158.249 21.648 162.67C20.7894 166.934 20.3311 171.395 20.7804 175.738Z" fill="white"/>
<path d="M367.171 188.047C356.749 195.566 343.242 195.944 330.186 195.02C328.363 194.891 326.553 194.74 324.76 194.577C324.749 194.574 324.735 194.575 324.724 194.572C324.638 194.564 324.551 194.556 324.469 194.551C324.099 194.516 323.728 194.482 323.362 194.447L323.448 194.612L323.72 195.126C323.622 194.954 323.525 194.786 323.427 194.614C323.398 194.562 323.366 194.511 323.337 194.459C319.955 188.565 316.601 182.455 315.745 175.725C314.861 168.739 317.346 160.829 323.486 157.395C324.291 156.946 325.144 156.589 326.028 156.329C326.395 156.217 326.767 156.127 327.144 156.047C329.446 155.535 331.843 155.646 334.089 156.369C336.334 157.093 338.346 158.402 339.919 160.162C341.492 161.922 342.568 164.071 343.036 166.385C343.505 168.7 343.35 171.098 342.586 173.333C347.791 167.988 346.82 159.317 345.025 152.07C343.226 144.824 341.048 136.76 344.707 130.251C346.741 126.628 350.318 124.381 354.332 123.475C354.455 123.449 354.578 123.422 354.701 123.399C359.484 122.429 364.456 123.301 368.624 125.842C376.3 130.686 380.242 139.869 381.521 148.865C383.583 163.342 379.021 179.498 367.171 188.047Z" fill="#F2F2F2"/>
<path d="M363.806 164.841C363.503 168.034 362.738 171.166 361.532 174.138C360.422 176.768 358.925 179.217 357.091 181.403C353.345 185.916 348.392 189.308 343.012 191.569C338.899 193.256 334.59 194.415 330.186 195.02C328.363 194.891 326.553 194.74 324.76 194.577C324.749 194.574 324.735 194.575 324.724 194.572C324.637 194.564 324.551 194.556 324.469 194.551C324.098 194.516 323.728 194.482 323.361 194.447L323.448 194.612L323.72 195.126C323.622 194.954 323.525 194.786 323.427 194.614C323.398 194.562 323.366 194.511 323.337 194.459C326.639 191.165 329.104 187.127 330.525 182.683C331.947 178.238 332.285 173.517 331.509 168.916C330.698 164.346 328.82 160.034 326.028 156.329C326.395 156.217 326.767 156.127 327.144 156.047C328.205 157.499 329.135 159.043 329.925 160.66C332.758 166.426 333.662 172.952 332.503 179.273C331.425 184.992 328.74 190.285 324.764 194.53C325.112 194.506 325.463 194.477 325.807 194.446C332.324 193.893 338.828 192.49 344.739 189.616C349.792 187.219 354.178 183.615 357.512 179.121C361.092 174.176 362.67 168.229 362.941 162.185C363.228 155.713 362.39 149.129 360.915 142.835C359.409 136.384 357.12 130.141 354.1 124.246C354.033 124.112 354.019 123.958 354.062 123.814C354.105 123.671 354.202 123.549 354.332 123.475C354.44 123.402 354.573 123.375 354.701 123.399C354.764 123.416 354.822 123.446 354.872 123.489C354.921 123.531 354.96 123.584 354.986 123.644C355.359 124.372 355.725 125.1 356.076 125.837C359.006 131.975 361.162 138.453 362.497 145.123C363.792 151.558 364.484 158.289 363.806 164.841Z" fill="white"/>
<path d="M269.228 114.495H113.379C113.052 114.494 112.739 114.364 112.508 114.133C112.277 113.902 112.147 113.588 112.146 113.262V1.23397C112.147 0.906964 112.277 0.59355 112.508 0.362296C112.739 0.131043 113.052 0.000777749 113.378 0H269.228C269.554 0.000745365 269.867 0.130939 270.098 0.362112C270.329 0.593285 270.459 0.906625 270.46 1.2336V113.261C270.459 113.588 270.329 113.901 270.099 114.133C269.868 114.364 269.555 114.494 269.228 114.495ZM113.379 0.753928C113.252 0.754243 113.13 0.804962 113.04 0.894991C112.95 0.985019 112.9 1.10703 112.899 1.23434V113.261C112.9 113.388 112.95 113.51 113.04 113.6C113.13 113.69 113.252 113.741 113.379 113.741H269.228C269.355 113.741 269.477 113.69 269.567 113.6C269.656 113.51 269.707 113.388 269.707 113.261V1.23397C269.707 1.10672 269.656 0.984803 269.566 0.894853C269.477 0.804902 269.355 0.754237 269.228 0.753928H113.379Z" fill="#3F3D56"/>
<path d="M260.623 9.62154V89.2343C260.623 89.4974 260.571 89.758 260.471 90.0011C260.37 90.2443 260.223 90.4652 260.037 90.6513C259.851 90.8375 259.631 90.9851 259.388 91.0859C259.145 91.1867 258.885 91.2386 258.622 91.2387H123.667C123.57 91.2394 123.475 91.2319 123.38 91.2163C122.904 91.1477 122.468 90.9095 122.153 90.5455C121.838 90.1815 121.665 89.7159 121.665 89.2343V9.62154C121.665 9.09013 121.875 8.58041 122.251 8.20453C122.626 7.82864 123.135 7.61737 123.665 7.61719H258.621C258.884 7.6171 259.144 7.66884 259.387 7.76945C259.63 7.87007 259.85 8.01758 260.036 8.20358C260.222 8.38958 260.369 8.61042 260.47 8.85349C260.571 9.09655 260.622 9.35709 260.623 9.62022V9.62154Z" fill="#F2F2F2"/>
<path d="M155.684 54.9534C165.382 54.9534 173.243 47.0806 173.243 37.3689C173.243 27.6573 165.382 19.7844 155.684 19.7844C145.986 19.7844 138.125 27.6573 138.125 37.3689C138.125 47.0806 145.986 54.9534 155.684 54.9534Z" fill="#FF6584"/>
<path d="M210.748 91.5579H124.607C124.499 91.5593 124.391 91.5507 124.285 91.5323L165.026 20.8626C165.274 20.4225 165.635 20.0563 166.072 19.8016C166.508 19.5468 167.004 19.4126 167.509 19.4126C168.014 19.4126 168.509 19.5468 168.946 19.8016C169.382 20.0563 169.743 20.4225 169.991 20.8626L197.333 68.2875L198.643 70.5568L210.748 91.5579Z" fill="#3F3D56"/>
<path opacity="0.2" d="M210.748 91.5577H181.337L195.775 70.5567L196.814 69.0439L197.334 68.2874L198.644 70.5567L210.748 91.5577Z" fill="black"/>
<path d="M258.71 91.5578H184.206L198.643 70.5567L199.682 69.0438L218.496 41.6753C219.729 39.8816 222.696 39.7699 224.146 41.337C224.244 41.4439 224.334 41.5569 224.417 41.6753L258.71 91.5578Z" fill="#3F3D56"/>
<path d="M117.159 112.507C118.48 112.507 119.55 111.436 119.55 110.113C119.55 108.791 118.48 107.72 117.159 107.72C115.839 107.72 114.769 108.791 114.769 110.113C114.769 111.436 115.839 112.507 117.159 112.507Z" fill="#E4252C"/>
<path d="M117.159 6.95718C118.48 6.95718 119.55 5.88546 119.55 4.56343C119.55 3.2414 118.48 2.16968 117.159 2.16968C115.839 2.16968 114.769 3.2414 114.769 4.56343C114.769 5.88546 115.839 6.95718 117.159 6.95718Z" fill="#E4252C"/>
<path d="M265.847 6.95718C267.168 6.95718 268.238 5.88546 268.238 4.56343C268.238 3.2414 267.168 2.16968 265.847 2.16968C264.527 2.16968 263.457 3.2414 263.457 4.56343C263.457 5.88546 264.527 6.95718 265.847 6.95718Z" fill="#E4252C"/>
<path d="M265.847 112.507C267.168 112.507 268.238 111.436 268.238 110.113C268.238 108.791 267.168 107.72 265.847 107.72C264.527 107.72 263.457 108.791 263.457 110.113C263.457 111.436 264.527 112.507 265.847 112.507Z" fill="#E4252C"/>
<path d="M83.1067 191.032H87.7217L89.917 173.206L83.106 173.207L83.1067 191.032Z" fill="#A0616A"/>
<path d="M96.6221 195.323L82.1181 195.324L82.1179 189.712L91.018 189.712C92.5042 189.712 93.9296 190.303 94.9806 191.355C96.0315 192.408 96.622 193.835 96.6221 195.323Z" fill="#2F2E41"/>
<path d="M65.7913 191.032H70.4063L72.6016 173.206L65.7905 173.207L65.7913 191.032Z" fill="#A0616A"/>
<path d="M79.3066 195.323L64.8027 195.324L64.8024 189.712L73.7026 189.712C75.1888 189.712 76.6142 190.303 77.6651 191.355C78.7161 192.408 79.3066 193.835 79.3066 195.323Z" fill="#2F2E41"/>
<path d="M66.3552 137.941C66.8524 137.621 67.2734 137.196 67.5886 136.695C67.9038 136.194 68.1056 135.63 68.1796 135.042C68.2536 134.455 68.1981 133.859 68.017 133.295C67.8359 132.732 67.5336 132.215 67.1315 131.781L70.1702 88.5964L61.4171 89.4465L61.1767 131.737C60.4936 132.462 60.0997 133.412 60.0697 134.409C60.0397 135.405 60.3757 136.378 61.0141 137.143C61.6524 137.907 62.5487 138.411 63.5331 138.558C64.5175 138.705 65.5216 138.486 66.3552 137.941Z" fill="#A0616A"/>
<path d="M83.2447 182.054C82.8306 182.053 82.4313 181.9 82.1216 181.625C81.8119 181.35 81.6131 180.971 81.5626 180.559L78.8801 158.091C78.8423 157.775 78.6915 157.483 78.4555 157.269C78.2195 157.056 77.9143 156.935 77.5962 156.929C77.2781 156.923 76.9686 157.032 76.7249 157.237C76.4812 157.442 76.3197 157.728 76.2704 158.043L72.8912 179.556C72.83 179.956 72.6274 180.32 72.3203 180.583C72.0131 180.846 71.6219 180.99 71.2178 180.988H65.7408C65.5173 180.988 65.296 180.944 65.0897 180.858C64.8833 180.772 64.696 180.646 64.5385 180.487C64.3811 180.328 64.2566 180.139 64.1722 179.932C64.0878 179.725 64.0452 179.503 64.0469 179.279L66.6609 131.58C66.6619 131.174 66.8092 130.782 67.0756 130.476C67.3421 130.17 67.7099 129.97 68.1115 129.914L88.4361 126.959C88.6776 126.924 88.9238 126.942 89.1579 127.011C89.3919 127.08 89.6083 127.199 89.7923 127.36C89.9762 127.52 90.1234 127.719 90.2237 127.941C90.324 128.164 90.375 128.406 90.3734 128.65L90.0188 180.127C90.0158 180.561 89.8469 180.977 89.5468 181.29C89.2467 181.603 88.8383 181.789 88.4055 181.81L83.3251 182.052C83.2982 182.054 83.2714 182.054 83.2447 182.054Z" fill="#2F2E41"/>
<path d="M72.7072 133.382C70.7522 133.375 68.8132 133.029 66.9758 132.36C66.6643 132.245 66.3938 132.041 66.1983 131.772C66.0028 131.503 65.8912 131.183 65.8774 130.85C65.702 126.954 64.6762 106.897 61.6898 94.6623C61.1094 92.2623 61.2513 89.7439 62.0978 87.4246C62.9443 85.1053 64.4575 83.0889 66.4465 81.6294C66.6072 81.5138 66.7709 81.4003 66.9378 81.2889C68.665 80.1374 70.6577 79.4477 72.7263 79.2853C74.7949 79.1229 76.8706 79.4933 78.7559 80.3612C80.7035 81.2339 82.3958 82.5912 83.6716 84.3039C84.9475 86.0166 85.7644 88.0278 86.0448 90.146L90.9148 126.354C90.9461 126.58 90.9312 126.81 90.8709 127.031C90.8107 127.251 90.7063 127.457 90.5643 127.636C90.4254 127.814 90.2518 127.961 90.0542 128.069C89.8567 128.178 89.6391 128.245 89.4149 128.267C87.7274 128.435 84.2276 129.09 79.7483 131.582C77.5943 132.777 75.1695 133.397 72.7072 133.382Z" fill="#E4252C"/>
<path d="M66.7538 103.369L58.7395 101.193C58.3062 101.075 57.9373 100.789 57.7139 100.399C57.4906 100.009 57.4308 99.5458 57.5479 99.1116L60.3652 88.7055C60.667 87.5909 61.3702 86.6275 62.3392 86.0013C63.3082 85.3751 64.4744 85.1304 65.6129 85.3143C66.7515 85.4982 67.7817 86.0977 68.505 86.9973C69.2282 87.8968 69.5933 89.0327 69.5298 90.1858L68.8885 101.825C68.8746 102.077 68.8046 102.323 68.6835 102.545C68.5625 102.767 68.3935 102.959 68.1889 103.107C67.9843 103.255 67.7492 103.355 67.501 103.4C67.2527 103.446 66.9974 103.435 66.7538 103.369Z" fill="#E4252C"/>
<path d="M75.6751 75.445C80.7812 75.445 84.9205 71.2998 84.9205 66.1864C84.9205 61.073 80.7812 56.9277 75.6751 56.9277C70.569 56.9277 66.4297 61.073 66.4297 66.1864C66.4297 71.2998 70.569 75.445 75.6751 75.445Z" fill="#A0616A"/>
<path d="M109.178 84.3766C109.132 84.58 109.102 84.7867 109.088 84.9949L92.9178 94.3368L88.9874 92.0709L84.7974 97.5641L93.2056 103.566L111.653 88.9912C112.406 89.27 113.225 89.3128 114.003 89.1139C114.78 88.9151 115.478 88.4839 116.005 87.8779C116.532 87.2718 116.862 86.5196 116.951 85.7211C117.04 84.9227 116.885 84.116 116.505 83.4082C116.125 82.7004 115.54 82.1252 114.826 81.7589C114.111 81.3927 113.303 81.2529 112.508 81.358C111.712 81.4631 110.968 81.8082 110.373 82.3475C109.778 82.8867 109.361 83.5944 109.178 84.3766Z" fill="#A0616A"/>
<path d="M91.5779 94.7874L84.6125 99.3142C84.2355 99.5586 83.7771 99.6433 83.3378 99.5496C82.8985 99.456 82.5143 99.1917 82.2694 98.8147L76.4085 89.7705C75.7806 88.8017 75.5332 87.6345 75.7139 86.4938C75.8946 85.3532 76.4906 84.3199 77.3869 83.5933C78.2833 82.8667 79.4166 82.4981 80.5683 82.5587C81.7199 82.6193 82.8084 83.1047 83.6238 83.9214L91.8538 92.1651C92.0322 92.3438 92.1686 92.5602 92.2528 92.7984C92.337 93.0367 92.367 93.2908 92.3406 93.5421C92.3141 93.7935 92.2319 94.0357 92.1 94.2512C91.968 94.4667 91.7897 94.6499 91.5779 94.7874Z" fill="#E4252C"/>
<path d="M69.1323 73.5113C70.8571 75.3511 74.0602 74.3634 74.285 71.8499C74.3026 71.6548 74.3013 71.4584 74.2812 71.2635C74.1651 70.1501 73.5228 69.1393 73.6767 67.9637C73.7115 67.6711 73.8203 67.3923 73.9929 67.1536C75.3673 65.3105 78.5937 67.978 79.8908 66.3095C80.6862 65.2864 79.7512 63.6756 80.3616 62.5321C81.1672 61.0229 83.5532 61.7674 85.0495 60.9409C86.7144 60.0213 86.6148 57.4633 85.5189 55.9074C84.1824 54.0099 81.8391 52.9974 79.5249 52.8515C77.2108 52.7056 74.9126 53.332 72.7522 54.1752C70.2975 55.1332 67.8633 56.4571 66.3527 58.6187C64.5157 61.2473 64.3389 64.7812 65.2576 67.8549C65.8165 69.7247 67.7239 72.0088 69.1323 73.5113Z" fill="#2F2E41"/>
<path d="M143.794 196H0.376425C0.276591 196 0.180846 195.96 0.110252 195.89C0.0396587 195.819 0 195.723 0 195.623C0 195.523 0.0396587 195.427 0.110252 195.357C0.180846 195.286 0.276591 195.246 0.376425 195.246H143.794C143.894 195.246 143.99 195.286 144.061 195.357C144.131 195.427 144.171 195.523 144.171 195.623C144.171 195.723 144.131 195.819 144.061 195.89C143.99 195.96 143.894 196 143.794 196Z" fill="#3F3D56"/>
<path d="M379.437 196H236.019C235.919 196 235.823 195.96 235.752 195.89C235.682 195.819 235.642 195.723 235.642 195.623C235.642 195.523 235.682 195.427 235.752 195.357C235.823 195.286 235.919 195.246 236.019 195.246H379.437C379.536 195.246 379.632 195.286 379.703 195.357C379.773 195.427 379.813 195.523 379.813 195.623C379.813 195.723 379.773 195.819 379.703 195.89C379.632 195.96 379.536 196 379.437 196Z" fill="#3F3D56"/>
<path d="M314.476 124.886C313.966 124.632 313.519 124.269 313.164 123.823C312.81 123.377 312.557 122.859 312.425 122.305C312.292 121.75 312.282 121.174 312.396 120.615C312.51 120.057 312.745 119.53 313.084 119.073L310.173 90.5701H316.464L318.777 118.401C319.507 119.023 319.985 119.891 320.118 120.841C320.252 121.791 320.033 122.758 319.503 123.557C318.973 124.356 318.168 124.933 317.242 125.178C316.315 125.423 315.331 125.319 314.476 124.886Z" fill="#FFB8B8"/>
<path d="M308.7 74.8401C313.616 74.8401 317.6 70.8495 317.6 65.9268C317.6 61.0041 313.616 57.0134 308.7 57.0134C303.784 57.0134 299.799 61.0041 299.799 65.9268C299.799 70.8495 303.784 74.8401 308.7 74.8401Z" fill="#FFB8B8"/>
<path d="M306.675 107.131L293.391 104.226C293.042 104.149 292.727 103.96 292.496 103.687C292.265 103.414 292.129 103.072 292.11 102.715C291.957 99.7462 291.846 92.0671 294.13 84.8983C294.571 83.5238 295.283 82.2519 296.223 81.1578C297.163 80.0637 298.314 79.1696 299.605 78.5284C300.897 77.8872 302.304 77.5119 303.743 77.4247C305.181 77.3376 306.623 77.5403 307.983 78.021C309.417 78.5257 310.729 79.3285 311.832 80.3765C312.934 81.4246 313.803 82.6944 314.382 84.1025C314.96 85.5106 315.235 87.0253 315.187 88.5471C315.14 90.0689 314.772 91.5635 314.107 92.9329C311.161 98.9906 309.306 103.377 308.593 105.972C308.482 106.374 308.222 106.719 307.865 106.935C307.508 107.15 307.082 107.221 306.675 107.131Z" fill="#E4252C"/>
<path d="M294.16 191.809L289.717 191.809L287.604 174.648H294.161L294.16 191.809Z" fill="#FFB8B8"/>
<path d="M286.544 190.538H295.112V195.94H281.149C281.149 195.231 281.289 194.528 281.56 193.873C281.831 193.217 282.229 192.622 282.73 192.12C283.23 191.618 283.825 191.22 284.48 190.949C285.134 190.677 285.836 190.538 286.544 190.538Z" fill="#2F2E41"/>
<path d="M338.585 186.043L334.692 188.186L324.583 174.168L330.33 171.005L338.585 186.043Z" fill="#FFB8B8"/>
<path d="M331.3 188.603L338.809 184.469L341.408 189.204L329.172 195.94C328.83 195.319 328.615 194.636 328.537 193.93C328.459 193.225 328.521 192.512 328.719 191.83C328.916 191.149 329.246 190.513 329.689 189.96C330.132 189.406 330.679 188.945 331.3 188.603Z" fill="#2F2E41"/>
<path d="M294.241 182.279L287.402 181.752C287.019 181.723 286.659 181.56 286.384 181.291C286.11 181.022 285.94 180.665 285.904 180.282C284.929 170.101 280.652 118.506 292.219 102.62L292.251 102.576L292.303 102.557C292.406 102.519 302.722 98.8354 308.64 105.586C308.826 105.801 308.952 106.06 309.007 106.338C309.062 106.617 309.044 106.905 308.954 107.174L308.728 107.853C308.663 108.045 308.646 108.25 308.677 108.45C308.709 108.651 308.788 108.841 308.908 109.004C310.55 111.228 316.078 119.791 318.25 136.631C318.264 136.739 318.292 136.844 318.332 136.944L334.373 176.405C334.455 176.607 334.496 176.823 334.493 177.04C334.491 177.258 334.445 177.473 334.358 177.672C334.272 177.872 334.146 178.052 333.989 178.202C333.832 178.352 333.646 178.47 333.443 178.547L328.396 180.473C328.028 180.611 327.624 180.612 327.255 180.477C326.886 180.342 326.578 180.078 326.387 179.735L303.231 137.663C303.139 137.495 302.996 137.361 302.824 137.28C302.651 137.198 302.457 137.174 302.269 137.209C302.082 137.245 301.91 137.339 301.779 137.478C301.648 137.617 301.564 137.795 301.54 137.984L295.983 180.861C295.932 181.254 295.74 181.615 295.443 181.877C295.146 182.139 294.764 182.283 294.368 182.284C294.326 182.284 294.284 182.282 294.241 182.279Z" fill="#2F2E41"/>
<path d="M274.097 76.2804C274.142 76.4762 274.171 76.6752 274.184 76.8756L289.751 85.8691L293.535 83.6877L297.569 88.9761L291.245 93.4897C290.734 93.8544 290.119 94.0432 289.492 94.0279C288.865 94.0126 288.259 93.794 287.767 93.4049L271.714 80.7228C270.99 80.9914 270.201 81.0327 269.453 80.8413C268.704 80.6499 268.032 80.2348 267.524 79.6512C267.017 79.0677 266.7 78.3434 266.614 77.5746C266.527 76.8058 266.677 76.0291 267.043 75.3476C267.408 74.6661 267.972 74.1122 268.66 73.7596C269.348 73.407 270.126 73.2723 270.892 73.3736C271.658 73.4749 272.375 73.8072 272.947 74.3265C273.52 74.8457 273.921 75.5272 274.097 76.2804Z" fill="#FFB8B8"/>
<path d="M289.965 84.9702C290.012 84.7403 290.108 84.5232 290.246 84.3337C290.385 84.1442 290.562 83.9869 290.767 83.8724L297.91 79.8722C298.86 79.139 300.06 78.8126 301.249 78.9644C302.438 79.1163 303.519 79.734 304.254 80.6823C304.989 81.6306 305.319 82.832 305.171 84.0232C305.023 85.2145 304.409 86.2984 303.465 87.0374L297.769 92.9605C297.606 93.1295 297.409 93.2615 297.191 93.3474C296.973 93.4333 296.739 93.4711 296.505 93.4582C296.271 93.4454 296.043 93.3822 295.835 93.273C295.628 93.1638 295.446 93.011 295.303 92.8252L290.272 86.2951C290.129 86.1094 290.027 85.8948 289.974 85.6662C289.921 85.4375 289.918 85.2001 289.965 84.9702Z" fill="#E4252C"/>
<path d="M308.457 97.3028C308.275 97.1553 308.127 96.9701 308.022 96.76C307.918 96.5498 307.86 96.3196 307.853 96.085L307.597 87.8926C307.383 86.7111 307.647 85.4931 308.329 84.5056C309.011 83.5182 310.056 82.8419 311.236 82.6251C312.415 82.4083 313.632 82.6686 314.62 83.349C315.608 84.0294 316.286 85.0743 316.506 86.2547L319.133 94.0453C319.208 94.2676 319.234 94.5035 319.21 94.737C319.186 94.9704 319.111 95.1958 318.992 95.3979C318.873 95.6 318.712 95.774 318.52 95.9081C318.327 96.0421 318.108 96.1331 317.878 96.1748L309.773 97.6404C309.542 97.6823 309.305 97.6738 309.078 97.6155C308.851 97.5572 308.639 97.4506 308.457 97.3028Z" fill="#E4252C"/>
<path d="M307.291 63.8766C305.003 65.4445 302 67.0563 299.663 65.3865C298.932 64.8292 298.401 64.0498 298.15 63.165C297.898 62.2802 297.94 61.3376 298.268 60.4783C299.387 57.2744 302.46 55.8638 305.4 54.7826C309.221 53.3771 313.382 52.2589 317.326 53.2655C321.271 54.2721 324.757 58.0968 324.045 62.1106C323.472 65.3383 320.432 68.0241 320.864 71.2738C321.298 74.5443 324.971 76.2659 328.213 76.8504C331.456 77.4349 335.084 77.6227 337.415 79.9551C340.387 82.9305 339.645 88.2487 336.848 91.3901C334.051 94.5315 329.83 95.9555 325.739 96.9235C320.32 98.2061 314.459 98.8802 309.312 96.7516C304.165 94.623 300.159 88.8931 301.65 83.5201C302.28 81.2506 303.764 79.3326 305.198 77.4653C306.631 75.598 308.083 73.6453 308.63 71.3543C309.086 69.4452 308.749 67.2286 307.484 65.7965C307.254 65.5458 307.11 65.2286 307.071 64.8905C307.032 64.5523 307.102 64.2106 307.269 63.9143L307.291 63.8766Z" fill="#2F2E41"/>
</g>
<defs>
<clipPath id="clip0_149_1869">
<rect width="382" height="196" fill="white"/>
</clipPath>
</defs>
</svg>
